<?xml version="1.0" encoding="UTF-8" standalone="no"?>
<!DOCTYPE svg PUBLIC "-//W3C//DTD SVG 1.1//EN"
 "http://www.w3.org/Graphics/SVG/1.1/DTD/svg11.dtd">
<!-- Generated by graphviz version 8.0.5 (20230430.1635)
 -->
<!-- Title: structs Pages: 1 -->
<svg width="1718pt" height="685pt"
 viewBox="0.00 0.00 1717.95 684.75" xmlns="http://www.w3.org/2000/svg" xmlns:xlink="http://www.w3.org/1999/xlink">
<g id="graph0" class="graph" transform="scale(1 1) rotate(0) translate(4 680.75)">
<title>structs</title>
<polygon fill="white" stroke="none" points="-4,4 -4,-680.75 1713.95,-680.75 1713.95,4 -4,4"/>
<!-- Enveloppe_0 -->
<g id="node1" class="node">
<title>Enveloppe_0</title>
<polygon fill="none" stroke="none" points="533.1,-613.5 533.1,-661.5 645.1,-661.5 645.1,-613.5 533.1,-613.5"/>
<polygon fill="none" stroke="black" points="533.1,-637.5 533.1,-661.5 548.1,-661.5 548.1,-637.5 533.1,-637.5"/>
<text text-anchor="start" x="537.97" y="-645.1" font-family="Times,serif" font-size="12.00">c</text>
<polygon fill="none" stroke="black" points="548.1,-613.5 548.1,-661.5 629.1,-661.5 629.1,-613.5 548.1,-613.5"/>
<text text-anchor="start" x="552.97" y="-640.7" font-family="Times,serif" font-size="14.00">Enveloppe_0</text>
<text text-anchor="start" x="555.22" y="-624.2" font-family="Times,serif" font-size="14.00">(Enveloppe)</text>
<polygon fill="none" stroke="black" points="629.1,-637.5 629.1,-661.5 645.1,-661.5 645.1,-637.5 629.1,-637.5"/>
<text text-anchor="start" x="634.1" y="-645.1" font-family="Times,serif" font-size="12.00">o</text>
<polygon fill="none" stroke="black" points="533.1,-613.5 533.1,-637.5 548.1,-637.5 548.1,-613.5 533.1,-613.5"/>
<text text-anchor="start" x="539.1" y="-621.1" font-family="Times,serif" font-size="12.00">i</text>
<polygon fill="none" stroke="black" points="629.1,-613.5 629.1,-637.5 645.1,-637.5 645.1,-613.5 629.1,-613.5"/>
</g>
<!-- arm_add_q152 -->
<g id="node15" class="node">
<title>arm_add_q152</title>
<polygon fill="#ffd39b" stroke="none" points="740.6,-545.5 740.6,-593.5 860.6,-593.5 860.6,-545.5 740.6,-545.5"/>
<polygon fill="none" stroke="black" points="740.6,-569.5 740.6,-593.5 759.6,-593.5 759.6,-569.5 740.6,-569.5"/>
<text text-anchor="start" x="745.97" y="-577.1" font-family="Times,serif" font-size="12.00">ia</text>
<polygon fill="none" stroke="black" points="759.6,-545.5 759.6,-593.5 844.6,-593.5 844.6,-545.5 759.6,-545.5"/>
<text text-anchor="start" x="764.6" y="-572.7" font-family="Times,serif" font-size="14.00">arm_add_q15</text>
<text text-anchor="start" x="773.6" y="-556.2" font-family="Times,serif" font-size="14.00">(Function)</text>
<polygon fill="none" stroke="black" points="844.6,-569.5 844.6,-593.5 860.6,-593.5 860.6,-569.5 844.6,-569.5"/>
<text text-anchor="start" x="849.6" y="-577.1" font-family="Times,serif" font-size="12.00">o</text>
<polygon fill="none" stroke="black" points="740.6,-545.5 740.6,-569.5 759.6,-569.5 759.6,-545.5 740.6,-545.5"/>
<text text-anchor="start" x="745.6" y="-553.1" font-family="Times,serif" font-size="12.00">ib</text>
<polygon fill="none" stroke="black" points="844.6,-545.5 844.6,-569.5 860.6,-569.5 860.6,-545.5 844.6,-545.5"/>
</g>
<!-- Enveloppe_0&#45;&gt;arm_add_q152 -->
<g id="edge7" class="edge">
<title>Enveloppe_0:o&#45;&gt;arm_add_q152:ia</title>
<path fill="none" stroke="black" d="M646.1,-649.5C696.16,-649.5 745.58,-646.81 749.37,-600.38"/>
<polygon fill="black" stroke="black" points="751.15,-600.57 749.6,-595.5 747.65,-600.43 751.15,-600.57"/>
<text text-anchor="start" x="671.1" y="-651.35" font-family="Times,serif" font-size="12.00">q15(128)</text>
<text text-anchor="start" x="725.6" y="-603.35" font-family="Times,serif" font-size="12.00" fill="blue">128</text>
<text text-anchor="start" x="652.1" y="-658.35" font-family="Times,serif" font-size="12.00" fill="blue">128</text>
</g>
<!-- Enveloppe_1 -->
<g id="node2" class="node">
<title>Enveloppe_1</title>
<polygon fill="none" stroke="none" points="533.1,-521.5 533.1,-569.5 645.1,-569.5 645.1,-521.5 533.1,-521.5"/>
<polygon fill="none" stroke="black" points="533.1,-545.5 533.1,-569.5 548.1,-569.5 548.1,-545.5 533.1,-545.5"/>
<text text-anchor="start" x="537.97" y="-553.1" font-family="Times,serif" font-size="12.00">c</text>
<polygon fill="none" stroke="black" points="548.1,-521.5 548.1,-569.5 629.1,-569.5 629.1,-521.5 548.1,-521.5"/>
<text text-anchor="start" x="552.97" y="-548.7" font-family="Times,serif" font-size="14.00">Enveloppe_1</text>
<text text-anchor="start" x="555.22" y="-532.2" font-family="Times,serif" font-size="14.00">(Enveloppe)</text>
<polygon fill="none" stroke="black" points="629.1,-545.5 629.1,-569.5 645.1,-569.5 645.1,-545.5 629.1,-545.5"/>
<text text-anchor="start" x="634.1" y="-553.1" font-family="Times,serif" font-size="12.00">o</text>
<polygon fill="none" stroke="black" points="533.1,-521.5 533.1,-545.5 548.1,-545.5 548.1,-521.5 533.1,-521.5"/>
<text text-anchor="start" x="539.1" y="-529.1" font-family="Times,serif" font-size="12.00">i</text>
<polygon fill="none" stroke="black" points="629.1,-521.5 629.1,-545.5 645.1,-545.5 645.1,-521.5 629.1,-521.5"/>
</g>
<!-- Enveloppe_1&#45;&gt;arm_add_q152 -->
<g id="edge8" class="edge">
<title>Enveloppe_1:o&#45;&gt;arm_add_q152:ib</title>
<path fill="none" stroke="black" d="M646.1,-557.5C685.71,-557.5 697,-557.5 733.96,-557.5"/>
<polygon fill="black" stroke="black" points="733.6,-559.25 738.6,-557.5 733.6,-555.75 733.6,-559.25"/>
<text text-anchor="start" x="671.1" y="-560.35" font-family="Times,serif" font-size="12.00">q15(128)</text>
<text text-anchor="start" x="715.6" y="-540.1" font-family="Times,serif" font-size="12.00" fill="blue">128</text>
<text text-anchor="start" x="652.1" y="-540.1" font-family="Times,serif" font-size="12.00" fill="blue">128</text>
</g>
<!-- Enveloppe_2 -->
<g id="node3" class="node">
<title>Enveloppe_2</title>
<polygon fill="none" stroke="none" points="533.1,-392.5 533.1,-440.5 645.1,-440.5 645.1,-392.5 533.1,-392.5"/>
<polygon fill="none" stroke="black" points="533.1,-416.5 533.1,-440.5 548.1,-440.5 548.1,-416.5 533.1,-416.5"/>
<text text-anchor="start" x="537.97" y="-424.1" font-family="Times,serif" font-size="12.00">c</text>
<polygon fill="none" stroke="black" points="548.1,-392.5 548.1,-440.5 629.1,-440.5 629.1,-392.5 548.1,-392.5"/>
<text text-anchor="start" x="552.97" y="-419.7" font-family="Times,serif" font-size="14.00">Enveloppe_2</text>
<text text-anchor="start" x="555.22" y="-403.2" font-family="Times,serif" font-size="14.00">(Enveloppe)</text>
<polygon fill="none" stroke="black" points="629.1,-416.5 629.1,-440.5 645.1,-440.5 645.1,-416.5 629.1,-416.5"/>
<text text-anchor="start" x="634.1" y="-424.1" font-family="Times,serif" font-size="12.00">o</text>
<polygon fill="none" stroke="black" points="533.1,-392.5 533.1,-416.5 548.1,-416.5 548.1,-392.5 533.1,-392.5"/>
<text text-anchor="start" x="539.1" y="-400.1" font-family="Times,serif" font-size="12.00">i</text>
<polygon fill="none" stroke="black" points="629.1,-392.5 629.1,-416.5 645.1,-416.5 645.1,-392.5 629.1,-392.5"/>
</g>
<!-- arm_add_q153 -->
<g id="node16" class="node">
<title>arm_add_q153</title>
<polygon fill="#ffd39b" stroke="none" points="956.1,-416.5 956.1,-464.5 1076.1,-464.5 1076.1,-416.5 956.1,-416.5"/>
<polygon fill="none" stroke="black" points="956.1,-440.5 956.1,-464.5 975.1,-464.5 975.1,-440.5 956.1,-440.5"/>
<text text-anchor="start" x="961.47" y="-448.1" font-family="Times,serif" font-size="12.00">ia</text>
<polygon fill="none" stroke="black" points="975.1,-416.5 975.1,-464.5 1060.1,-464.5 1060.1,-416.5 975.1,-416.5"/>
<text text-anchor="start" x="980.1" y="-443.7" font-family="Times,serif" font-size="14.00">arm_add_q15</text>
<text text-anchor="start" x="989.1" y="-427.2" font-family="Times,serif" font-size="14.00">(Function)</text>
<polygon fill="none" stroke="black" points="1060.1,-440.5 1060.1,-464.5 1076.1,-464.5 1076.1,-440.5 1060.1,-440.5"/>
<text text-anchor="start" x="1065.1" y="-448.1" font-family="Times,serif" font-size="12.00">o</text>
<polygon fill="none" stroke="black" points="956.1,-416.5 956.1,-440.5 975.1,-440.5 975.1,-416.5 956.1,-416.5"/>
<text text-anchor="start" x="961.1" y="-424.1" font-family="Times,serif" font-size="12.00">ib</text>
<polygon fill="none" stroke="black" points="1060.1,-416.5 1060.1,-440.5 1076.1,-440.5 1076.1,-416.5 1060.1,-416.5"/>
</g>
<!-- Enveloppe_2&#45;&gt;arm_add_q153 -->
<g id="edge10" class="edge">
<title>Enveloppe_2:o&#45;&gt;arm_add_q153:ib</title>
<path fill="none" stroke="black" d="M646.1,-428.5C781.42,-428.5 816.74,-428.5 949.13,-428.5"/>
<polygon fill="black" stroke="black" points="949.1,-430.25 954.1,-428.5 949.1,-426.75 949.1,-430.25"/>
<text text-anchor="start" x="778.85" y="-431.35" font-family="Times,serif" font-size="12.00">q15(128)</text>
<text text-anchor="start" x="931.1" y="-411.1" font-family="Times,serif" font-size="12.00" fill="blue">128</text>
<text text-anchor="start" x="652.1" y="-437.35" font-family="Times,serif" font-size="12.00" fill="blue">128</text>
</g>
<!-- Enveloppe_3 -->
<g id="node4" class="node">
<title>Enveloppe_3</title>
<polygon fill="none" stroke="none" points="533.1,-253.5 533.1,-301.5 645.1,-301.5 645.1,-253.5 533.1,-253.5"/>
<polygon fill="none" stroke="black" points="533.1,-277.5 533.1,-301.5 548.1,-301.5 548.1,-277.5 533.1,-277.5"/>
<text text-anchor="start" x="537.97" y="-285.1" font-family="Times,serif" font-size="12.00">c</text>
<polygon fill="none" stroke="black" points="548.1,-253.5 548.1,-301.5 629.1,-301.5 629.1,-253.5 548.1,-253.5"/>
<text text-anchor="start" x="552.97" y="-280.7" font-family="Times,serif" font-size="14.00">Enveloppe_3</text>
<text text-anchor="start" x="555.22" y="-264.2" font-family="Times,serif" font-size="14.00">(Enveloppe)</text>
<polygon fill="none" stroke="black" points="629.1,-277.5 629.1,-301.5 645.1,-301.5 645.1,-277.5 629.1,-277.5"/>
<text text-anchor="start" x="634.1" y="-285.1" font-family="Times,serif" font-size="12.00">o</text>
<polygon fill="none" stroke="black" points="533.1,-253.5 533.1,-277.5 548.1,-277.5 548.1,-253.5 533.1,-253.5"/>
<text text-anchor="start" x="539.1" y="-261.1" font-family="Times,serif" font-size="12.00">i</text>
<polygon fill="none" stroke="black" points="629.1,-253.5 629.1,-277.5 645.1,-277.5 645.1,-253.5 629.1,-253.5"/>
</g>
<!-- arm_add_q154 -->
<g id="node17" class="node">
<title>arm_add_q154</title>
<polygon fill="#ffd39b" stroke="none" points="740.6,-222.5 740.6,-270.5 860.6,-270.5 860.6,-222.5 740.6,-222.5"/>
<polygon fill="none" stroke="black" points="740.6,-246.5 740.6,-270.5 759.6,-270.5 759.6,-246.5 740.6,-246.5"/>
<text text-anchor="start" x="745.97" y="-254.1" font-family="Times,serif" font-size="12.00">ia</text>
<polygon fill="none" stroke="black" points="759.6,-222.5 759.6,-270.5 844.6,-270.5 844.6,-222.5 759.6,-222.5"/>
<text text-anchor="start" x="764.6" y="-249.7" font-family="Times,serif" font-size="14.00">arm_add_q15</text>
<text text-anchor="start" x="773.6" y="-233.2" font-family="Times,serif" font-size="14.00">(Function)</text>
<polygon fill="none" stroke="black" points="844.6,-246.5 844.6,-270.5 860.6,-270.5 860.6,-246.5 844.6,-246.5"/>
<text text-anchor="start" x="849.6" y="-254.1" font-family="Times,serif" font-size="12.00">o</text>
<polygon fill="none" stroke="black" points="740.6,-222.5 740.6,-246.5 759.6,-246.5 759.6,-222.5 740.6,-222.5"/>
<text text-anchor="start" x="745.6" y="-230.1" font-family="Times,serif" font-size="12.00">ib</text>
<polygon fill="none" stroke="black" points="844.6,-222.5 844.6,-246.5 860.6,-246.5 860.6,-222.5 844.6,-222.5"/>
</g>
<!-- Enveloppe_3&#45;&gt;arm_add_q154 -->
<g id="edge11" class="edge">
<title>Enveloppe_3:o&#45;&gt;arm_add_q154:ia</title>
<path fill="none" stroke="black" d="M646.1,-289.5C687.83,-289.5 695.18,-261.34 733.69,-258.7"/>
<polygon fill="black" stroke="black" points="733.66,-260.42 738.6,-258.5 733.54,-256.92 733.66,-260.42"/>
<text text-anchor="start" x="671.1" y="-287.35" font-family="Times,serif" font-size="12.00">q15(128)</text>
<text text-anchor="start" x="715.6" y="-267.35" font-family="Times,serif" font-size="12.00" fill="blue">128</text>
<text text-anchor="start" x="652.1" y="-298.35" font-family="Times,serif" font-size="12.00" fill="blue">128</text>
</g>
<!-- Enveloppe_4 -->
<g id="node5" class="node">
<title>Enveloppe_4</title>
<polygon fill="none" stroke="none" points="533.1,-171.5 533.1,-219.5 645.1,-219.5 645.1,-171.5 533.1,-171.5"/>
<polygon fill="none" stroke="black" points="533.1,-195.5 533.1,-219.5 548.1,-219.5 548.1,-195.5 533.1,-195.5"/>
<text text-anchor="start" x="537.97" y="-203.1" font-family="Times,serif" font-size="12.00">c</text>
<polygon fill="none" stroke="black" points="548.1,-171.5 548.1,-219.5 629.1,-219.5 629.1,-171.5 548.1,-171.5"/>
<text text-anchor="start" x="552.97" y="-198.7" font-family="Times,serif" font-size="14.00">Enveloppe_4</text>
<text text-anchor="start" x="555.22" y="-182.2" font-family="Times,serif" font-size="14.00">(Enveloppe)</text>
<polygon fill="none" stroke="black" points="629.1,-195.5 629.1,-219.5 645.1,-219.5 645.1,-195.5 629.1,-195.5"/>
<text text-anchor="start" x="634.1" y="-203.1" font-family="Times,serif" font-size="12.00">o</text>
<polygon fill="none" stroke="black" points="533.1,-171.5 533.1,-195.5 548.1,-195.5 548.1,-171.5 533.1,-171.5"/>
<text text-anchor="start" x="539.1" y="-179.1" font-family="Times,serif" font-size="12.00">i</text>
<polygon fill="none" stroke="black" points="629.1,-171.5 629.1,-195.5 645.1,-195.5 645.1,-171.5 629.1,-171.5"/>
</g>
<!-- Enveloppe_4&#45;&gt;arm_add_q154 -->
<g id="edge12" class="edge">
<title>Enveloppe_4:o&#45;&gt;arm_add_q154:ib</title>
<path fill="none" stroke="black" d="M646.1,-207.5C687.33,-207.5 695.61,-232.03 733.75,-234.33"/>
<polygon fill="black" stroke="black" points="733.55,-236.1 738.6,-234.5 733.65,-232.6 733.55,-236.1"/>
<text text-anchor="start" x="671.1" y="-234.35" font-family="Times,serif" font-size="12.00">q15(128)</text>
<text text-anchor="start" x="715.6" y="-217.1" font-family="Times,serif" font-size="12.00" fill="blue">128</text>
<text text-anchor="start" x="652.1" y="-209.79" font-family="Times,serif" font-size="12.00" fill="blue">128</text>
</g>
<!-- Enveloppe_5 -->
<g id="node6" class="node">
<title>Enveloppe_5</title>
<polygon fill="none" stroke="none" points="533.1,-51.5 533.1,-99.5 645.1,-99.5 645.1,-51.5 533.1,-51.5"/>
<polygon fill="none" stroke="black" points="533.1,-75.5 533.1,-99.5 548.1,-99.5 548.1,-75.5 533.1,-75.5"/>
<text text-anchor="start" x="537.97" y="-83.1" font-family="Times,serif" font-size="12.00">c</text>
<polygon fill="none" stroke="black" points="548.1,-51.5 548.1,-99.5 629.1,-99.5 629.1,-51.5 548.1,-51.5"/>
<text text-anchor="start" x="552.97" y="-78.7" font-family="Times,serif" font-size="14.00">Enveloppe_5</text>
<text text-anchor="start" x="555.22" y="-62.2" font-family="Times,serif" font-size="14.00">(Enveloppe)</text>
<polygon fill="none" stroke="black" points="629.1,-75.5 629.1,-99.5 645.1,-99.5 645.1,-75.5 629.1,-75.5"/>
<text text-anchor="start" x="634.1" y="-83.1" font-family="Times,serif" font-size="12.00">o</text>
<polygon fill="none" stroke="black" points="533.1,-51.5 533.1,-75.5 548.1,-75.5 548.1,-51.5 533.1,-51.5"/>
<text text-anchor="start" x="539.1" y="-59.1" font-family="Times,serif" font-size="12.00">i</text>
<polygon fill="none" stroke="black" points="629.1,-51.5 629.1,-75.5 645.1,-75.5 645.1,-51.5 629.1,-51.5"/>
</g>
<!-- arm_add_q155 -->
<g id="node18" class="node">
<title>arm_add_q155</title>
<polygon fill="#ffd39b" stroke="none" points="956.1,-222.5 956.1,-270.5 1076.1,-270.5 1076.1,-222.5 956.1,-222.5"/>
<polygon fill="none" stroke="black" points="956.1,-246.5 956.1,-270.5 975.1,-270.5 975.1,-246.5 956.1,-246.5"/>
<text text-anchor="start" x="961.47" y="-254.1" font-family="Times,serif" font-size="12.00">ia</text>
<polygon fill="none" stroke="black" points="975.1,-222.5 975.1,-270.5 1060.1,-270.5 1060.1,-222.5 975.1,-222.5"/>
<text text-anchor="start" x="980.1" y="-249.7" font-family="Times,serif" font-size="14.00">arm_add_q15</text>
<text text-anchor="start" x="989.1" y="-233.2" font-family="Times,serif" font-size="14.00">(Function)</text>
<polygon fill="none" stroke="black" points="1060.1,-246.5 1060.1,-270.5 1076.1,-270.5 1076.1,-246.5 1060.1,-246.5"/>
<text text-anchor="start" x="1065.1" y="-254.1" font-family="Times,serif" font-size="12.00">o</text>
<polygon fill="none" stroke="black" points="956.1,-222.5 956.1,-246.5 975.1,-246.5 975.1,-222.5 956.1,-222.5"/>
<text text-anchor="start" x="961.1" y="-230.1" font-family="Times,serif" font-size="12.00">ib</text>
<polygon fill="none" stroke="black" points="1060.1,-222.5 1060.1,-246.5 1076.1,-246.5 1076.1,-222.5 1060.1,-222.5"/>
</g>
<!-- Enveloppe_5&#45;&gt;arm_add_q155 -->
<g id="edge14" class="edge">
<title>Enveloppe_5:o&#45;&gt;arm_add_q155:ib</title>
<path fill="none" stroke="black" d="M637.1,-100.5C637.1,-253.91 956.82,-70.88 964.94,-215.75"/>
<polygon fill="black" stroke="black" points="963.21,-215.55 965.1,-220.5 966.71,-215.45 963.21,-215.55"/>
<text text-anchor="start" x="778.85" y="-169.35" font-family="Times,serif" font-size="12.00">q15(128)</text>
<text text-anchor="start" x="941.1" y="-204.1" font-family="Times,serif" font-size="12.00" fill="blue">128</text>
<text text-anchor="start" x="643.1" y="-109.35" font-family="Times,serif" font-size="12.00" fill="blue">128</text>
</g>
<!-- NoteSequencer -->
<g id="node7" class="node">
<title>NoteSequencer</title>
<polygon fill="none" stroke="none" points="8,-284.5 8,-428.5 129,-428.5 129,-284.5 8,-284.5"/>
<polygon fill="none" stroke="black" points="8,-404.5 8,-428.5 18,-428.5 18,-404.5 8,-404.5"/>
<polygon fill="none" stroke="black" points="18,-284.5 18,-428.5 110,-428.5 110,-284.5 18,-284.5"/>
<text text-anchor="start" x="22.75" y="-359.7" font-family="Times,serif" font-size="14.00">NoteSequencer</text>
<text text-anchor="start" x="31.38" y="-343.2" font-family="Times,serif" font-size="14.00">(Sequencer)</text>
<polygon fill="none" stroke="black" points="110,-404.5 110,-428.5 129,-428.5 129,-404.5 110,-404.5"/>
<text text-anchor="start" x="115" y="-412.1" font-family="Times,serif" font-size="12.00">A</text>
<polygon fill="none" stroke="black" points="8,-380.5 8,-404.5 18,-404.5 18,-380.5 8,-380.5"/>
<polygon fill="none" stroke="black" points="110,-380.5 110,-404.5 129,-404.5 129,-380.5 110,-380.5"/>
<text text-anchor="start" x="115.38" y="-388.1" font-family="Times,serif" font-size="12.00">B</text>
<polygon fill="none" stroke="black" points="8,-356.5 8,-380.5 18,-380.5 18,-356.5 8,-356.5"/>
<polygon fill="none" stroke="black" points="110,-356.5 110,-380.5 129,-380.5 129,-356.5 110,-356.5"/>
<text text-anchor="start" x="115.38" y="-364.1" font-family="Times,serif" font-size="12.00">C</text>
<polygon fill="none" stroke="black" points="8,-332.5 8,-356.5 18,-356.5 18,-332.5 8,-332.5"/>
<polygon fill="none" stroke="black" points="110,-332.5 110,-356.5 129,-356.5 129,-332.5 110,-332.5"/>
<text text-anchor="start" x="115" y="-340.1" font-family="Times,serif" font-size="12.00">D</text>
<polygon fill="none" stroke="black" points="8,-308.5 8,-332.5 18,-332.5 18,-308.5 8,-308.5"/>
<polygon fill="none" stroke="black" points="110,-308.5 110,-332.5 129,-332.5 129,-308.5 110,-308.5"/>
<text text-anchor="start" x="115.75" y="-316.1" font-family="Times,serif" font-size="12.00">E</text>
<polygon fill="none" stroke="black" points="8,-284.5 8,-308.5 18,-308.5 18,-284.5 8,-284.5"/>
<polygon fill="none" stroke="black" points="110,-284.5 110,-308.5 129,-308.5 129,-284.5 110,-284.5"/>
<text text-anchor="start" x="116.12" y="-292.1" font-family="Times,serif" font-size="12.00">F</text>
</g>
<!-- dup0 -->
<g id="node21" class="node">
<title>dup0</title>
<ellipse fill="black" stroke="black" cx="244.55" cy="-625.5" rx="1.8" ry="1.8"/>
</g>
<!-- NoteSequencer&#45;&gt;dup0 -->
<g id="edge18" class="edge">
<title>NoteSequencer:A&#45;&gt;dup0</title>
<path fill="none" stroke="black" d="M119.5,-429.5C119.5,-519.7 214.46,-602.1 238.21,-621.3"/>
<polygon fill="black" stroke="black" points="236.75,-623.17 241.76,-624.9 238.92,-620.42 236.75,-623.17"/>
<text text-anchor="start" x="155" y="-610.35" font-family="Times,serif" font-size="12.00">midi_cmd_t(1)</text>
<text text-anchor="start" x="107.5" y="-438.35" font-family="Times,serif" font-size="12.00" fill="blue">1</text>
</g>
<!-- dup1 -->
<g id="node22" class="node">
<title>dup1</title>
<ellipse fill="black" stroke="black" cx="244.55" cy="-505.5" rx="1.8" ry="1.8"/>
</g>
<!-- NoteSequencer&#45;&gt;dup1 -->
<g id="edge21" class="edge">
<title>NoteSequencer:B&#45;&gt;dup1</title>
<path fill="none" stroke="black" d="M130.5,-392.5C161.07,-392.5 222.75,-476.19 239.35,-499.52"/>
<polygon fill="black" stroke="black" points="238.36,-500.15 242.67,-503.23 241.22,-498.14 238.36,-500.15"/>
<text text-anchor="start" x="155" y="-480.35" font-family="Times,serif" font-size="12.00">midi_cmd_t(1)</text>
<text text-anchor="start" x="136.5" y="-401.35" font-family="Times,serif" font-size="12.00" fill="blue">1</text>
</g>
<!-- dup2 -->
<g id="node23" class="node">
<title>dup2</title>
<ellipse fill="black" stroke="black" cx="244.55" cy="-385.5" rx="1.8" ry="1.8"/>
</g>
<!-- NoteSequencer&#45;&gt;dup2 -->
<g id="edge24" class="edge">
<title>NoteSequencer:C&#45;&gt;dup2</title>
<path fill="none" stroke="black" d="M130.5,-368.5C171.12,-368.5 219.04,-379.36 236.63,-383.72"/>
<polygon fill="black" stroke="black" points="236.17,-385.67 241.45,-385.2 237.03,-382.27 236.17,-385.67"/>
<text text-anchor="start" x="155" y="-382.35" font-family="Times,serif" font-size="12.00">midi_cmd_t(1)</text>
<text text-anchor="start" x="136.5" y="-370.79" font-family="Times,serif" font-size="12.00" fill="blue">1</text>
</g>
<!-- dup3 -->
<g id="node24" class="node">
<title>dup3</title>
<ellipse fill="black" stroke="black" cx="244.55" cy="-327.5" rx="1.8" ry="1.8"/>
</g>
<!-- NoteSequencer&#45;&gt;dup3 -->
<g id="edge27" class="edge">
<title>NoteSequencer:D&#45;&gt;dup3</title>
<path fill="none" stroke="black" d="M130.5,-344.5C171.12,-344.5 219.04,-333.64 236.63,-329.28"/>
<polygon fill="black" stroke="black" points="237.03,-330.73 241.45,-327.8 236.17,-327.33 237.03,-330.73"/>
<text text-anchor="start" x="155" y="-345.35" font-family="Times,serif" font-size="12.00">midi_cmd_t(1)</text>
<text text-anchor="start" x="136.5" y="-333.66" font-family="Times,serif" font-size="12.00" fill="blue">1</text>
</g>
<!-- dup4 -->
<g id="node25" class="node">
<title>dup4</title>
<ellipse fill="black" stroke="black" cx="244.55" cy="-207.5" rx="1.8" ry="1.8"/>
</g>
<!-- NoteSequencer&#45;&gt;dup4 -->
<g id="edge30" class="edge">
<title>NoteSequencer:E&#45;&gt;dup4</title>
<path fill="none" stroke="black" d="M130.5,-320.5C161.07,-320.5 222.75,-236.81 239.35,-213.48"/>
<polygon fill="black" stroke="black" points="241.22,-214.86 242.67,-209.77 238.36,-212.85 241.22,-214.86"/>
<text text-anchor="start" x="155" y="-311.35" font-family="Times,serif" font-size="12.00">midi_cmd_t(1)</text>
<text text-anchor="start" x="136.5" y="-303.1" font-family="Times,serif" font-size="12.00" fill="blue">1</text>
</g>
<!-- dup5 -->
<g id="node26" class="node">
<title>dup5</title>
<ellipse fill="black" stroke="black" cx="244.55" cy="-87.5" rx="1.8" ry="1.8"/>
</g>
<!-- NoteSequencer&#45;&gt;dup5 -->
<g id="edge33" class="edge">
<title>NoteSequencer:F&#45;&gt;dup5</title>
<path fill="none" stroke="black" d="M119.5,-283.5C119.5,-193.3 214.46,-110.9 238.21,-91.7"/>
<polygon fill="black" stroke="black" points="238.92,-92.58 241.76,-88.1 236.75,-89.83 238.92,-92.58"/>
<text text-anchor="start" x="155" y="-183.35" font-family="Times,serif" font-size="12.00">midi_cmd_t(1)</text>
<text text-anchor="start" x="107.5" y="-266.1" font-family="Times,serif" font-size="12.00" fill="blue">1</text>
</g>
<!-- Waveform0 -->
<g id="node8" class="node">
<title>Waveform0</title>
<polygon fill="none" stroke="none" points="360.1,-604 360.1,-647 437.6,-647 437.6,-604 360.1,-604"/>
<polygon fill="none" stroke="black" points="360.1,-604 360.1,-647 437.6,-647 437.6,-604 360.1,-604"/>
<text text-anchor="start" x="366.22" y="-628.7" font-family="Times,serif" font-size="14.00">Waveform0</text>
<text text-anchor="start" x="365.1" y="-612.2" font-family="Times,serif" font-size="14.00">(Waveform)</text>
</g>
<!-- Waveform0&#45;&gt;Enveloppe_0 -->
<g id="edge1" class="edge">
<title>Waveform0:i&#45;&gt;Enveloppe_0:i</title>
<path fill="none" stroke="black" d="M437.47,-625.5C462.39,-625.5 495.97,-625.5 526.45,-625.5"/>
<polygon fill="black" stroke="black" points="526.1,-627.25 531.1,-625.5 526.1,-623.75 526.1,-627.25"/>
<text text-anchor="start" x="463.6" y="-628.35" font-family="Times,serif" font-size="12.00">q15(128)</text>
<text text-anchor="start" x="508.1" y="-608.1" font-family="Times,serif" font-size="12.00" fill="blue">128</text>
<text text-anchor="start" x="443.47" y="-608.1" font-family="Times,serif" font-size="12.00" fill="blue">128</text>
</g>
<!-- Waveform1 -->
<g id="node9" class="node">
<title>Waveform1</title>
<polygon fill="none" stroke="none" points="360.1,-484 360.1,-527 437.6,-527 437.6,-484 360.1,-484"/>
<polygon fill="none" stroke="black" points="360.1,-484 360.1,-527 437.6,-527 437.6,-484 360.1,-484"/>
<text text-anchor="start" x="366.22" y="-508.7" font-family="Times,serif" font-size="14.00">Waveform1</text>
<text text-anchor="start" x="365.1" y="-492.2" font-family="Times,serif" font-size="14.00">(Waveform)</text>
</g>
<!-- Waveform1&#45;&gt;Enveloppe_1 -->
<g id="edge2" class="edge">
<title>Waveform1:i&#45;&gt;Enveloppe_1:i</title>
<path fill="none" stroke="black" d="M437.6,-517.86C462.28,-524.92 495.54,-532.55 526.37,-533.42"/>
<polygon fill="black" stroke="black" points="526.08,-535.18 531.1,-533.5 526.13,-531.68 526.08,-535.18"/>
<text text-anchor="start" x="463.6" y="-534.35" font-family="Times,serif" font-size="12.00">q15(128)</text>
<text text-anchor="start" x="508.1" y="-516.1" font-family="Times,serif" font-size="12.00" fill="blue">128</text>
<text text-anchor="start" x="443.6" y="-500.46" font-family="Times,serif" font-size="12.00" fill="blue">128</text>
</g>
<!-- Waveform2 -->
<g id="node10" class="node">
<title>Waveform2</title>
<polygon fill="none" stroke="none" points="360.1,-364 360.1,-407 437.6,-407 437.6,-364 360.1,-364"/>
<polygon fill="none" stroke="black" points="360.1,-364 360.1,-407 437.6,-407 437.6,-364 360.1,-364"/>
<text text-anchor="start" x="366.22" y="-388.7" font-family="Times,serif" font-size="14.00">Waveform2</text>
<text text-anchor="start" x="365.1" y="-372.2" font-family="Times,serif" font-size="14.00">(Waveform)</text>
</g>
<!-- Waveform2&#45;&gt;Enveloppe_2 -->
<g id="edge3" class="edge">
<title>Waveform2:i&#45;&gt;Enveloppe_2:i</title>
<path fill="none" stroke="black" d="M437.55,-393.83C462.36,-398.64 495.78,-403.85 526.41,-404.44"/>
<polygon fill="black" stroke="black" points="526.08,-406.2 531.1,-404.5 526.12,-402.7 526.08,-406.2"/>
<text text-anchor="start" x="463.6" y="-405.35" font-family="Times,serif" font-size="12.00">q15(128)</text>
<text text-anchor="start" x="508.1" y="-387.1" font-family="Times,serif" font-size="12.00" fill="blue">128</text>
<text text-anchor="start" x="443.55" y="-376.43" font-family="Times,serif" font-size="12.00" fill="blue">128</text>
</g>
<!-- Waveform3 -->
<g id="node11" class="node">
<title>Waveform3</title>
<polygon fill="none" stroke="none" points="360.1,-244 360.1,-287 437.6,-287 437.6,-244 360.1,-244"/>
<polygon fill="none" stroke="black" points="360.1,-244 360.1,-287 437.6,-287 437.6,-244 360.1,-244"/>
<text text-anchor="start" x="366.22" y="-268.7" font-family="Times,serif" font-size="14.00">Waveform3</text>
<text text-anchor="start" x="365.1" y="-252.2" font-family="Times,serif" font-size="14.00">(Waveform)</text>
</g>
<!-- Waveform3&#45;&gt;Enveloppe_3 -->
<g id="edge4" class="edge">
<title>Waveform3:i&#45;&gt;Enveloppe_3:i</title>
<path fill="none" stroke="black" d="M437.47,-265.5C462.39,-265.5 495.97,-265.5 526.45,-265.5"/>
<polygon fill="black" stroke="black" points="526.1,-267.25 531.1,-265.5 526.1,-263.75 526.1,-267.25"/>
<text text-anchor="start" x="463.6" y="-268.35" font-family="Times,serif" font-size="12.00">q15(128)</text>
<text text-anchor="start" x="508.1" y="-248.1" font-family="Times,serif" font-size="12.00" fill="blue">128</text>
<text text-anchor="start" x="443.47" y="-248.1" font-family="Times,serif" font-size="12.00" fill="blue">128</text>
</g>
<!-- Waveform4 -->
<g id="node12" class="node">
<title>Waveform4</title>
<polygon fill="none" stroke="none" points="360.1,-124 360.1,-167 437.6,-167 437.6,-124 360.1,-124"/>
<polygon fill="none" stroke="black" points="360.1,-124 360.1,-167 437.6,-167 437.6,-124 360.1,-124"/>
<text text-anchor="start" x="366.22" y="-148.7" font-family="Times,serif" font-size="14.00">Waveform4</text>
<text text-anchor="start" x="365.1" y="-132.2" font-family="Times,serif" font-size="14.00">(Waveform)</text>
</g>
<!-- Waveform4&#45;&gt;Enveloppe_4 -->
<g id="edge5" class="edge">
<title>Waveform4:i&#45;&gt;Enveloppe_4:i</title>
<path fill="none" stroke="black" d="M437.33,-157.42C468.23,-167.08 509.6,-179.6 526.29,-182.75"/>
<polygon fill="black" stroke="black" points="525.92,-184.6 531.1,-183.5 526.36,-181.13 525.92,-184.6"/>
<text text-anchor="start" x="463.6" y="-181.35" font-family="Times,serif" font-size="12.00">q15(128)</text>
<text text-anchor="start" x="508.1" y="-166.1" font-family="Times,serif" font-size="12.00" fill="blue">128</text>
<text text-anchor="start" x="443.33" y="-159.71" font-family="Times,serif" font-size="12.00" fill="blue">128</text>
</g>
<!-- Waveform5 -->
<g id="node13" class="node">
<title>Waveform5</title>
<polygon fill="none" stroke="none" points="360.1,-4 360.1,-47 437.6,-47 437.6,-4 360.1,-4"/>
<polygon fill="none" stroke="black" points="360.1,-4 360.1,-47 437.6,-47 437.6,-4 360.1,-4"/>
<text text-anchor="start" x="366.22" y="-28.7" font-family="Times,serif" font-size="14.00">Waveform5</text>
<text text-anchor="start" x="365.1" y="-12.2" font-family="Times,serif" font-size="14.00">(Waveform)</text>
</g>
<!-- Waveform5&#45;&gt;Enveloppe_5 -->
<g id="edge6" class="edge">
<title>Waveform5:i&#45;&gt;Enveloppe_5:i</title>
<path fill="none" stroke="black" d="M437.33,-37.42C468.23,-47.08 509.6,-59.6 526.29,-62.75"/>
<polygon fill="black" stroke="black" points="525.92,-64.6 531.1,-63.5 526.36,-61.13 525.92,-64.6"/>
<text text-anchor="start" x="463.6" y="-61.35" font-family="Times,serif" font-size="12.00">q15(128)</text>
<text text-anchor="start" x="508.1" y="-46.1" font-family="Times,serif" font-size="12.00" fill="blue">128</text>
<text text-anchor="start" x="443.33" y="-39.71" font-family="Times,serif" font-size="12.00" fill="blue">128</text>
</g>
<!-- arm_add_q151 -->
<g id="node14" class="node">
<title>arm_add_q151</title>
<polygon fill="#ffd39b" stroke="none" points="1171.6,-367.5 1171.6,-415.5 1291.6,-415.5 1291.6,-367.5 1171.6,-367.5"/>
<polygon fill="none" stroke="black" points="1171.6,-391.5 1171.6,-415.5 1190.6,-415.5 1190.6,-391.5 1171.6,-391.5"/>
<text text-anchor="start" x="1176.97" y="-399.1" font-family="Times,serif" font-size="12.00">ia</text>
<polygon fill="none" stroke="black" points="1190.6,-367.5 1190.6,-415.5 1275.6,-415.5 1275.6,-367.5 1190.6,-367.5"/>
<text text-anchor="start" x="1195.6" y="-394.7" font-family="Times,serif" font-size="14.00">arm_add_q15</text>
<text text-anchor="start" x="1204.6" y="-378.2" font-family="Times,serif" font-size="14.00">(Function)</text>
<polygon fill="none" stroke="black" points="1275.6,-391.5 1275.6,-415.5 1291.6,-415.5 1291.6,-391.5 1275.6,-391.5"/>
<text text-anchor="start" x="1280.6" y="-399.1" font-family="Times,serif" font-size="12.00">o</text>
<polygon fill="none" stroke="black" points="1171.6,-367.5 1171.6,-391.5 1190.6,-391.5 1190.6,-367.5 1171.6,-367.5"/>
<text text-anchor="start" x="1176.6" y="-375.1" font-family="Times,serif" font-size="12.00">ib</text>
<polygon fill="none" stroke="black" points="1275.6,-367.5 1275.6,-391.5 1291.6,-391.5 1291.6,-367.5 1275.6,-367.5"/>
</g>
<!-- ogain -->
<g id="node28" class="node">
<title>ogain</title>
<polygon fill="none" stroke="none" points="1387.1,-382 1387.1,-425 1432.35,-425 1432.35,-382 1387.1,-382"/>
<polygon fill="none" stroke="black" points="1387.1,-382 1387.1,-425 1432.35,-425 1432.35,-382 1387.1,-382"/>
<text text-anchor="start" x="1394.72" y="-406.7" font-family="Times,serif" font-size="14.00">ogain</text>
<text text-anchor="start" x="1392.1" y="-390.2" font-family="Times,serif" font-size="14.00">(Gain)</text>
</g>
<!-- arm_add_q151&#45;&gt;ogain -->
<g id="edge17" class="edge">
<title>arm_add_q151:o&#45;&gt;ogain:i</title>
<path fill="none" stroke="black" d="M1292.6,-403.5C1323.08,-403.5 1358.06,-403.5 1381.6,-403.5"/>
<polygon fill="black" stroke="black" points="1381.32,-405.25 1386.32,-403.5 1381.32,-401.75 1381.32,-405.25"/>
<text text-anchor="start" x="1317.6" y="-406.35" font-family="Times,serif" font-size="12.00">q15(128)</text>
<text text-anchor="start" x="1363.32" y="-386.1" font-family="Times,serif" font-size="12.00" fill="blue">128</text>
<text text-anchor="start" x="1298.6" y="-386.1" font-family="Times,serif" font-size="12.00" fill="blue">128</text>
</g>
<!-- arm_add_q152&#45;&gt;arm_add_q153 -->
<g id="edge9" class="edge">
<title>arm_add_q152:o&#45;&gt;arm_add_q153:ia</title>
<path fill="none" stroke="black" d="M861.6,-581.5C928.8,-581.5 963.19,-537.12 965.02,-471.12"/>
<polygon fill="black" stroke="black" points="966.78,-471.52 965.1,-466.5 963.28,-471.48 966.78,-471.52"/>
<text text-anchor="start" x="886.6" y="-581.35" font-family="Times,serif" font-size="12.00">q15(128)</text>
<text text-anchor="start" x="941.1" y="-474.35" font-family="Times,serif" font-size="12.00" fill="blue">128</text>
<text text-anchor="start" x="867.6" y="-590.35" font-family="Times,serif" font-size="12.00" fill="blue">128</text>
</g>
<!-- arm_add_q153&#45;&gt;arm_add_q151 -->
<g id="edge15" class="edge">
<title>arm_add_q153:o&#45;&gt;arm_add_q151:ia</title>
<path fill="none" stroke="black" d="M1077.1,-452.5C1122,-452.5 1123.63,-407.62 1164.81,-403.76"/>
<polygon fill="black" stroke="black" points="1164.68,-405.48 1169.6,-403.5 1164.53,-401.98 1164.68,-405.48"/>
<text text-anchor="start" x="1102.1" y="-448.35" font-family="Times,serif" font-size="12.00">q15(128)</text>
<text text-anchor="start" x="1146.6" y="-412.35" font-family="Times,serif" font-size="12.00" fill="blue">128</text>
<text text-anchor="start" x="1083.1" y="-461.35" font-family="Times,serif" font-size="12.00" fill="blue">128</text>
</g>
<!-- arm_add_q154&#45;&gt;arm_add_q155 -->
<g id="edge13" class="edge">
<title>arm_add_q154:o&#45;&gt;arm_add_q155:ia</title>
<path fill="none" stroke="black" d="M861.6,-258.5C901.21,-258.5 912.5,-258.5 949.46,-258.5"/>
<polygon fill="black" stroke="black" points="949.1,-260.25 954.1,-258.5 949.1,-256.75 949.1,-260.25"/>
<text text-anchor="start" x="886.6" y="-262.35" font-family="Times,serif" font-size="12.00">q15(128)</text>
<text text-anchor="start" x="931.1" y="-241.1" font-family="Times,serif" font-size="12.00" fill="blue">128</text>
<text text-anchor="start" x="867.6" y="-241.1" font-family="Times,serif" font-size="12.00" fill="blue">128</text>
</g>
<!-- arm_add_q155&#45;&gt;arm_add_q151 -->
<g id="edge16" class="edge">
<title>arm_add_q155:o&#45;&gt;arm_add_q151:ib</title>
<path fill="none" stroke="black" d="M1068.1,-271.5C1068.1,-335.74 1102.33,-377.03 1164.86,-379.39"/>
<polygon fill="black" stroke="black" points="1164.57,-381.16 1169.6,-379.5 1164.63,-377.66 1164.57,-381.16"/>
<text text-anchor="start" x="1102.1" y="-379.35" font-family="Times,serif" font-size="12.00">q15(128)</text>
<text text-anchor="start" x="1146.6" y="-362.1" font-family="Times,serif" font-size="12.00" fill="blue">128</text>
<text text-anchor="start" x="1074.1" y="-280.35" font-family="Times,serif" font-size="12.00" fill="blue">128</text>
</g>
<!-- audio -->
<g id="node19" class="node">
<title>audio</title>
<polygon fill="#97ffff" stroke="none" points="1613.2,-417 1613.2,-460 1699.7,-460 1699.7,-417 1613.2,-417"/>
<polygon fill="none" stroke="black" points="1613.2,-417 1613.2,-460 1699.7,-460 1699.7,-417 1613.2,-417"/>
<text text-anchor="start" x="1641.45" y="-441.7" font-family="Times,serif" font-size="14.00">audio</text>
<text text-anchor="start" x="1618.2" y="-425.2" font-family="Times,serif" font-size="14.00">(PWMAudio)</text>
</g>
<!-- core1 -->
<g id="node20" class="node">
<title>core1</title>
<polygon fill="#ff3030" stroke="none" points="1610.95,-348 1610.95,-391 1701.95,-391 1701.95,-348 1610.95,-348"/>
<polygon fill="none" stroke="black" points="1610.95,-348 1610.95,-391 1701.95,-391 1701.95,-348 1610.95,-348"/>
<text text-anchor="start" x="1641.45" y="-372.7" font-family="Times,serif" font-size="14.00">core1</text>
<text text-anchor="start" x="1615.95" y="-356.2" font-family="Times,serif" font-size="14.00">(ToOtherCore)</text>
</g>
<!-- dup0&#45;&gt;Enveloppe_0 -->
<g id="edge20" class="edge">
<title>dup0&#45;&gt;Enveloppe_0:c</title>
<path fill="none" stroke="black" d="M246.4,-626.71C248.81,-630 256,-639.18 264.35,-643.5 299.63,-661.76 312.56,-656.7 352.1,-660.5 393.47,-664.47 404.13,-663.13 445.6,-660.5 482.31,-658.18 492.35,-650.35 526.42,-649.56"/>
<polygon fill="black" stroke="black" points="526.12,-651.31 531.1,-649.5 526.08,-647.81 526.12,-651.31"/>
<text text-anchor="start" x="363.97" y="-665.35" font-family="Times,serif" font-size="12.00">midi_cmd_t(1)</text>
<text text-anchor="start" x="520.1" y="-658.35" font-family="Times,serif" font-size="12.00" fill="blue">1</text>
</g>
<!-- dup0&#45;&gt;Waveform0 -->
<g id="edge19" class="edge">
<title>dup0&#45;&gt;Waveform0:i</title>
<path fill="none" stroke="black" d="M246.52,-625.5C254.7,-625.5 312.72,-625.5 354.49,-625.5"/>
<polygon fill="black" stroke="black" points="354.26,-627.25 359.26,-625.5 354.26,-623.75 354.26,-627.25"/>
<text text-anchor="start" x="264.35" y="-628.35" font-family="Times,serif" font-size="12.00">midi_cmd_t(1)</text>
<text text-anchor="start" x="348.26" y="-634.35" font-family="Times,serif" font-size="12.00" fill="blue">1</text>
</g>
<!-- dup1&#45;&gt;Enveloppe_1 -->
<g id="edge23" class="edge">
<title>dup1&#45;&gt;Enveloppe_1:c</title>
<path fill="none" stroke="black" d="M246.4,-506.71C248.81,-510 256,-519.18 264.35,-523.5 299.63,-541.76 312.78,-534.85 352.1,-540.5 429.77,-551.67 450.77,-557.24 526.55,-557.49"/>
<polygon fill="black" stroke="black" points="526.1,-559.24 531.1,-557.5 526.1,-555.74 526.1,-559.24"/>
<text text-anchor="start" x="363.97" y="-556.35" font-family="Times,serif" font-size="12.00">midi_cmd_t(1)</text>
<text text-anchor="start" x="520.1" y="-566.35" font-family="Times,serif" font-size="12.00" fill="blue">1</text>
</g>
<!-- dup1&#45;&gt;Waveform1 -->
<g id="edge22" class="edge">
<title>dup1&#45;&gt;Waveform1:i</title>
<path fill="none" stroke="black" d="M246.52,-505.5C254.7,-505.5 312.72,-505.5 354.49,-505.5"/>
<polygon fill="black" stroke="black" points="354.26,-507.25 359.26,-505.5 354.26,-503.75 354.26,-507.25"/>
<text text-anchor="start" x="264.35" y="-508.35" font-family="Times,serif" font-size="12.00">midi_cmd_t(1)</text>
<text text-anchor="start" x="348.26" y="-514.35" font-family="Times,serif" font-size="12.00" fill="blue">1</text>
</g>
<!-- dup2&#45;&gt;Enveloppe_2 -->
<g id="edge26" class="edge">
<title>dup2&#45;&gt;Enveloppe_2:c</title>
<path fill="none" stroke="black" d="M246.4,-386.71C248.81,-390 256,-399.18 264.35,-403.5 299.63,-421.76 312.65,-415.83 352.1,-420.5 429.6,-429.68 450.95,-428.57 526.11,-428.5"/>
<polygon fill="black" stroke="black" points="526.1,-430.25 531.1,-428.5 526.1,-426.75 526.1,-430.25"/>
<text text-anchor="start" x="363.97" y="-430.35" font-family="Times,serif" font-size="12.00">midi_cmd_t(1)</text>
<text text-anchor="start" x="520.1" y="-437.35" font-family="Times,serif" font-size="12.00" fill="blue">1</text>
</g>
<!-- dup2&#45;&gt;Waveform2 -->
<g id="edge25" class="edge">
<title>dup2&#45;&gt;Waveform2:i</title>
<path fill="none" stroke="black" d="M246.52,-385.5C254.7,-385.5 312.72,-385.5 354.49,-385.5"/>
<polygon fill="black" stroke="black" points="354.26,-387.25 359.26,-385.5 354.26,-383.75 354.26,-387.25"/>
<text text-anchor="start" x="264.35" y="-388.35" font-family="Times,serif" font-size="12.00">midi_cmd_t(1)</text>
<text text-anchor="start" x="348.26" y="-394.35" font-family="Times,serif" font-size="12.00" fill="blue">1</text>
</g>
<!-- dup3&#45;&gt;Enveloppe_3 -->
<g id="edge29" class="edge">
<title>dup3&#45;&gt;Enveloppe_3:c</title>
<path fill="none" stroke="black" d="M246.79,-327.33C265.4,-324.79 487.47,-294.53 526.45,-290.05"/>
<polygon fill="black" stroke="black" points="526.29,-291.73 531.1,-289.5 525.95,-288.25 526.29,-291.73"/>
<text text-anchor="start" x="363.97" y="-315.35" font-family="Times,serif" font-size="12.00">midi_cmd_t(1)</text>
<text text-anchor="start" x="520.1" y="-298.35" font-family="Times,serif" font-size="12.00" fill="blue">1</text>
</g>
<!-- dup3&#45;&gt;Waveform3 -->
<g id="edge28" class="edge">
<title>dup3&#45;&gt;Waveform3:i</title>
<path fill="none" stroke="black" d="M246.12,-325.92C247.95,-321.1 254.15,-306.46 264.35,-299.25 290.77,-280.56 326.58,-272.2 354.46,-268.47"/>
<polygon fill="black" stroke="black" points="354.54,-270.1 359.28,-267.74 354.1,-266.63 354.54,-270.1"/>
<text text-anchor="start" x="264.35" y="-301.35" font-family="Times,serif" font-size="12.00">midi_cmd_t(1)</text>
<text text-anchor="start" x="348.28" y="-276.59" font-family="Times,serif" font-size="12.00" fill="blue">1</text>
</g>
<!-- dup4&#45;&gt;Enveloppe_4 -->
<g id="edge32" class="edge">
<title>dup4&#45;&gt;Enveloppe_4:c</title>
<path fill="none" stroke="black" d="M246.58,-207.5C260.19,-207.5 406.05,-207.5 526.39,-207.5"/>
<polygon fill="black" stroke="black" points="526.1,-209.25 531.1,-207.5 526.1,-205.75 526.1,-209.25"/>
<text text-anchor="start" x="363.97" y="-210.35" font-family="Times,serif" font-size="12.00">midi_cmd_t(1)</text>
<text text-anchor="start" x="520.1" y="-216.35" font-family="Times,serif" font-size="12.00" fill="blue">1</text>
</g>
<!-- dup4&#45;&gt;Waveform4 -->
<g id="edge31" class="edge">
<title>dup4&#45;&gt;Waveform4:i</title>
<path fill="none" stroke="black" d="M246.12,-205.92C247.95,-201.1 254.15,-186.46 264.35,-179.25 290.77,-160.56 326.58,-152.2 354.46,-148.47"/>
<polygon fill="black" stroke="black" points="354.54,-150.1 359.28,-147.74 354.1,-146.63 354.54,-150.1"/>
<text text-anchor="start" x="264.35" y="-182.35" font-family="Times,serif" font-size="12.00">midi_cmd_t(1)</text>
<text text-anchor="start" x="348.28" y="-156.59" font-family="Times,serif" font-size="12.00" fill="blue">1</text>
</g>
<!-- dup5&#45;&gt;Enveloppe_5 -->
<g id="edge35" class="edge">
<title>dup5&#45;&gt;Enveloppe_5:c</title>
<path fill="none" stroke="black" d="M246.58,-87.5C260.19,-87.5 406.05,-87.5 526.39,-87.5"/>
<polygon fill="black" stroke="black" points="526.1,-89.25 531.1,-87.5 526.1,-85.75 526.1,-89.25"/>
<text text-anchor="start" x="363.97" y="-90.35" font-family="Times,serif" font-size="12.00">midi_cmd_t(1)</text>
<text text-anchor="start" x="520.1" y="-96.35" font-family="Times,serif" font-size="12.00" fill="blue">1</text>
</g>
<!-- dup5&#45;&gt;Waveform5 -->
<g id="edge34" class="edge">
<title>dup5&#45;&gt;Waveform5:i</title>
<path fill="none" stroke="black" d="M246.12,-85.92C247.95,-81.1 254.15,-66.46 264.35,-59.25 290.77,-40.56 326.58,-32.2 354.46,-28.47"/>
<polygon fill="black" stroke="black" points="354.54,-30.1 359.28,-27.74 354.1,-26.63 354.54,-30.1"/>
<text text-anchor="start" x="264.35" y="-62.35" font-family="Times,serif" font-size="12.00">midi_cmd_t(1)</text>
<text text-anchor="start" x="348.28" y="-36.59" font-family="Times,serif" font-size="12.00" fill="blue">1</text>
</g>
<!-- dup6 -->
<g id="node27" class="node">
<title>dup6</title>
<ellipse fill="black" stroke="black" cx="1521.65" cy="-403.5" rx="1.8" ry="1.8"/>
</g>
<!-- dup6&#45;&gt;audio -->
<g id="edge37" class="edge">
<title>dup6&#45;&gt;audio:i</title>
<path fill="none" stroke="black" d="M1523.58,-404.36C1526.19,-406.72 1533.84,-413.3 1541.45,-416.5 1562.26,-425.24 1586.67,-430.55 1607.56,-433.75"/>
<polygon fill="black" stroke="black" points="1607.15,-435.6 1612.35,-434.6 1607.66,-432.14 1607.15,-435.6"/>
<text text-anchor="start" x="1541.45" y="-431.35" font-family="Times,serif" font-size="12.00">q15(128)</text>
<text text-anchor="start" x="1589.35" y="-417.2" font-family="Times,serif" font-size="12.00" fill="blue">128</text>
</g>
<!-- dup6&#45;&gt;core1 -->
<g id="edge38" class="edge">
<title>dup6&#45;&gt;core1:i</title>
<path fill="none" stroke="black" d="M1523.5,-403.28C1529.87,-401.65 1570.98,-391.13 1605.64,-382.25"/>
<polygon fill="black" stroke="black" points="1605.73,-383.78 1610.14,-380.85 1604.86,-380.39 1605.73,-383.78"/>
<text text-anchor="start" x="1541.45" y="-401.35" font-family="Times,serif" font-size="12.00">q15(128)</text>
<text text-anchor="start" x="1587.14" y="-363.45" font-family="Times,serif" font-size="12.00" fill="blue">128</text>
</g>
<!-- ogain&#45;&gt;dup6 -->
<g id="edge36" class="edge">
<title>ogain:i&#45;&gt;dup6</title>
<path fill="none" stroke="black" d="M1432.18,-403.5C1457.52,-403.5 1498.24,-403.5 1514.06,-403.5"/>
<polygon fill="black" stroke="black" points="1513.65,-405.25 1518.65,-403.5 1513.65,-401.75 1513.65,-405.25"/>
<text text-anchor="start" x="1458.35" y="-406.35" font-family="Times,serif" font-size="12.00">q15(128)</text>
<text text-anchor="start" x="1438.18" y="-386.1" font-family="Times,serif" font-size="12.00" fill="blue">128</text>
</g>
</g>
</svg>
