<?xml version="1.0" encoding="UTF-8" standalone="no"?>
<!DOCTYPE svg PUBLIC "-//W3C//DTD SVG 1.1//EN"
 "http://www.w3.org/Graphics/SVG/1.1/DTD/svg11.dtd">
<!-- Generated by graphviz version 8.0.5 (20230430.1635)
 -->
<!-- Title: structs Pages: 1 -->
<svg width="1555pt" height="252pt"
 viewBox="0.00 0.00 1554.85 251.50" xmlns="http://www.w3.org/2000/svg" xmlns:xlink="http://www.w3.org/1999/xlink">
<g id="graph0" class="graph" transform="scale(1 1) rotate(0) translate(4 247.5)">
<title>structs</title>
<polygon fill="white" stroke="none" points="-4,4 -4,-247.5 1550.85,-247.5 1550.85,4 -4,4"/>
<!-- FFTW -->
<g id="node1" class="node">
<title>FFTW</title>
<polygon fill="none" stroke="none" points="1263.85,-126 1263.85,-174 1389.85,-174 1389.85,-126 1263.85,-126"/>
<polygon fill="none" stroke="black" points="1263.85,-150 1263.85,-174 1282.85,-174 1282.85,-150 1263.85,-150"/>
<text text-anchor="start" x="1268.47" y="-157.6" font-family="Times,serif" font-size="12.00">fb</text>
<polygon fill="none" stroke="black" points="1282.85,-126 1282.85,-174 1373.85,-174 1373.85,-126 1282.85,-126"/>
<text text-anchor="start" x="1309.97" y="-153.2" font-family="Times,serif" font-size="14.00">FFTW</text>
<text text-anchor="start" x="1287.85" y="-136.7" font-family="Times,serif" font-size="14.00">(BlockWidget)</text>
<polygon fill="none" stroke="black" points="1373.85,-150 1373.85,-174 1389.85,-174 1389.85,-150 1373.85,-150"/>
<text text-anchor="start" x="1378.85" y="-157.6" font-family="Times,serif" font-size="12.00">o</text>
<polygon fill="none" stroke="black" points="1263.85,-126 1263.85,-150 1282.85,-150 1282.85,-126 1263.85,-126"/>
<text text-anchor="start" x="1271.85" y="-133.6" font-family="Times,serif" font-size="12.00">i</text>
<polygon fill="none" stroke="black" points="1373.85,-126 1373.85,-150 1389.85,-150 1389.85,-126 1373.85,-126"/>
</g>
<!-- lcd -->
<g id="node11" class="node">
<title>lcd</title>
<polygon fill="#97ffff" stroke="none" points="1492.85,-140.5 1492.85,-183.5 1538.85,-183.5 1538.85,-140.5 1492.85,-140.5"/>
<polygon fill="none" stroke="black" points="1492.85,-140.5 1492.85,-183.5 1538.85,-183.5 1538.85,-140.5 1492.85,-140.5"/>
<text text-anchor="start" x="1507.6" y="-165.2" font-family="Times,serif" font-size="14.00">lcd</text>
<text text-anchor="start" x="1497.85" y="-148.7" font-family="Times,serif" font-size="14.00">(LCD)</text>
</g>
<!-- FFTW&#45;&gt;lcd -->
<g id="edge9" class="edge">
<title>FFTW:o&#45;&gt;lcd:i</title>
<path fill="none" stroke="black" d="M1390.85,-162C1423.93,-162 1461.98,-162 1487.11,-162"/>
<polygon fill="black" stroke="black" points="1486.9,-163.75 1491.9,-162 1486.9,-160.25 1486.9,-163.75"/>
<text text-anchor="start" x="1415.85" y="-164.85" font-family="Times,serif" font-size="12.00">image_t(1)</text>
<text text-anchor="start" x="1480.9" y="-144.6" font-family="Times,serif" font-size="12.00" fill="blue">1</text>
<text text-anchor="start" x="1396.85" y="-170.85" font-family="Times,serif" font-size="12.00" fill="blue">1</text>
</g>
<!-- ampW -->
<g id="node2" class="node">
<title>ampW</title>
<polygon fill="none" stroke="none" points="523.6,-137 523.6,-185 641.6,-185 641.6,-137 523.6,-137"/>
<polygon fill="none" stroke="black" points="523.6,-161 523.6,-185 542.6,-185 542.6,-161 523.6,-161"/>
<text text-anchor="start" x="528.22" y="-168.6" font-family="Times,serif" font-size="12.00">fb</text>
<polygon fill="none" stroke="black" points="542.6,-137 542.6,-185 625.6,-185 625.6,-137 542.6,-137"/>
<text text-anchor="start" x="565.35" y="-164.2" font-family="Times,serif" font-size="14.00">ampW</text>
<text text-anchor="start" x="547.35" y="-147.7" font-family="Times,serif" font-size="14.00">(LineWidget)</text>
<polygon fill="none" stroke="black" points="625.6,-161 625.6,-185 641.6,-185 641.6,-161 625.6,-161"/>
<text text-anchor="start" x="630.6" y="-168.6" font-family="Times,serif" font-size="12.00">o</text>
<polygon fill="none" stroke="black" points="523.6,-137 523.6,-161 542.6,-161 542.6,-137 523.6,-137"/>
<text text-anchor="start" x="531.6" y="-144.6" font-family="Times,serif" font-size="12.00">i</text>
<polygon fill="none" stroke="black" points="625.6,-137 625.6,-161 641.6,-161 641.6,-137 625.6,-137"/>
</g>
<!-- ampW&#45;&gt;FFTW -->
<g id="edge8" class="edge">
<title>ampW:o&#45;&gt;FFTW:fb</title>
<path fill="none" stroke="black" d="M642.6,-173C704.66,-173 720.17,-172 782.22,-172 782.22,-172 782.22,-172 1118.97,-172 1181.07,-172 1197.72,-162.62 1256.98,-162.03"/>
<polygon fill="black" stroke="black" points="1256.86,-163.77 1261.85,-162 1256.84,-160.27 1256.86,-163.77"/>
<text text-anchor="start" x="920.97" y="-174.85" font-family="Times,serif" font-size="12.00">image_t(1)</text>
<text text-anchor="start" x="1250.85" y="-170.85" font-family="Times,serif" font-size="12.00" fill="blue">1</text>
<text text-anchor="start" x="648.6" y="-181.85" font-family="Times,serif" font-size="12.00" fill="blue">1</text>
</g>
<!-- arm_mult_q151 -->
<g id="node3" class="node">
<title>arm_mult_q151</title>
<polygon fill="#ffd39b" stroke="none" points="519.6,-44 519.6,-92 645.6,-92 645.6,-44 519.6,-44"/>
<polygon fill="none" stroke="black" points="519.6,-68 519.6,-92 538.6,-92 538.6,-68 519.6,-68"/>
<text text-anchor="start" x="524.97" y="-75.6" font-family="Times,serif" font-size="12.00">ia</text>
<polygon fill="none" stroke="black" points="538.6,-44 538.6,-92 629.6,-92 629.6,-44 538.6,-44"/>
<text text-anchor="start" x="543.6" y="-71.2" font-family="Times,serif" font-size="14.00">arm_mult_q15</text>
<text text-anchor="start" x="555.6" y="-54.7" font-family="Times,serif" font-size="14.00">(Function)</text>
<polygon fill="none" stroke="black" points="629.6,-68 629.6,-92 645.6,-92 645.6,-68 629.6,-68"/>
<text text-anchor="start" x="634.6" y="-75.6" font-family="Times,serif" font-size="12.00">o</text>
<polygon fill="none" stroke="black" points="519.6,-44 519.6,-68 538.6,-68 538.6,-44 519.6,-44"/>
<text text-anchor="start" x="524.6" y="-51.6" font-family="Times,serif" font-size="12.00">ib</text>
<polygon fill="none" stroke="black" points="629.6,-44 629.6,-68 645.6,-68 645.6,-44 629.6,-44"/>
</g>
<!-- toCmplx -->
<g id="node12" class="node">
<title>toCmplx</title>
<polygon fill="none" stroke="none" points="741.1,-63.5 741.1,-106.5 825.35,-106.5 825.35,-63.5 741.1,-63.5"/>
<polygon fill="none" stroke="black" points="741.1,-63.5 741.1,-106.5 825.35,-106.5 825.35,-63.5 741.1,-63.5"/>
<text text-anchor="start" x="759.22" y="-88.2" font-family="Times,serif" font-size="14.00">toCmplx</text>
<text text-anchor="start" x="746.1" y="-71.7" font-family="Times,serif" font-size="14.00">(ToComplex)</text>
</g>
<!-- arm_mult_q151&#45;&gt;toCmplx -->
<g id="edge4" class="edge">
<title>arm_mult_q151:o&#45;&gt;toCmplx:i</title>
<path fill="none" stroke="black" d="M646.6,-80C676.17,-80 709.35,-81.2 735.48,-82.43"/>
<polygon fill="black" stroke="black" points="735.21,-84.21 740.29,-82.7 735.38,-80.72 735.21,-84.21"/>
<text text-anchor="start" x="671.6" y="-84.85" font-family="Times,serif" font-size="12.00">q15(256)</text>
<text text-anchor="start" x="717.29" y="-65.3" font-family="Times,serif" font-size="12.00" fill="blue">256</text>
<text text-anchor="start" x="652.6" y="-62.6" font-family="Times,serif" font-size="12.00" fill="blue">256</text>
</g>
<!-- core0 -->
<g id="node4" class="node">
<title>core0</title>
<polygon fill="#ff3030" stroke="none" points="8,-92.5 8,-135.5 114,-135.5 114,-92.5 8,-92.5"/>
<polygon fill="none" stroke="black" points="8,-92.5 8,-135.5 114,-135.5 114,-92.5 8,-92.5"/>
<text text-anchor="start" x="46" y="-117.2" font-family="Times,serif" font-size="14.00">core0</text>
<text text-anchor="start" x="13" y="-100.7" font-family="Times,serif" font-size="14.00">(FromOtherCore)</text>
</g>
<!-- dup0 -->
<g id="node7" class="node">
<title>dup0</title>
<ellipse fill="black" stroke="black" cx="203.3" cy="-114" rx="1.8" ry="1.8"/>
</g>
<!-- core0&#45;&gt;dup0 -->
<g id="edge10" class="edge">
<title>core0:i&#45;&gt;dup0</title>
<path fill="none" stroke="black" d="M113.84,-114C144.69,-114 180.61,-114 195.4,-114"/>
<polygon fill="black" stroke="black" points="195.07,-115.75 200.07,-114 195.07,-112.25 195.07,-115.75"/>
<text text-anchor="start" x="140" y="-116.85" font-family="Times,serif" font-size="12.00">q15(128)</text>
<text text-anchor="start" x="119.84" y="-96.6" font-family="Times,serif" font-size="12.00" fill="blue">128</text>
</g>
<!-- decimateAmp -->
<g id="node5" class="node">
<title>decimateAmp</title>
<polygon fill="none" stroke="none" points="292.6,-127.5 292.6,-170.5 416.6,-170.5 416.6,-127.5 292.6,-127.5"/>
<polygon fill="none" stroke="black" points="292.6,-127.5 292.6,-170.5 416.6,-170.5 416.6,-127.5 292.6,-127.5"/>
<text text-anchor="start" x="315.97" y="-152.2" font-family="Times,serif" font-size="14.00">decimateAmp</text>
<text text-anchor="start" x="297.6" y="-135.7" font-family="Times,serif" font-size="14.00">(FilterAndDecimate)</text>
</g>
<!-- decimateAmp&#45;&gt;ampW -->
<g id="edge1" class="edge">
<title>decimateAmp:i&#45;&gt;ampW:i</title>
<path fill="none" stroke="black" d="M416.28,-149C446.23,-149 483.09,-149 516.79,-149"/>
<polygon fill="black" stroke="black" points="516.6,-150.75 521.6,-149 516.6,-147.25 516.6,-150.75"/>
<text text-anchor="start" x="446.35" y="-151.85" font-family="Times,serif" font-size="12.00">q15(256)</text>
<text text-anchor="start" x="498.6" y="-131.6" font-family="Times,serif" font-size="12.00" fill="blue">256</text>
<text text-anchor="start" x="422.28" y="-131.6" font-family="Times,serif" font-size="12.00" fill="blue">8</text>
</g>
<!-- decimateFFT -->
<g id="node6" class="node">
<title>decimateFFT</title>
<polygon fill="none" stroke="none" points="292.6,-58.5 292.6,-101.5 416.6,-101.5 416.6,-58.5 292.6,-58.5"/>
<polygon fill="none" stroke="black" points="292.6,-58.5 292.6,-101.5 416.6,-101.5 416.6,-58.5 292.6,-58.5"/>
<text text-anchor="start" x="318.22" y="-83.2" font-family="Times,serif" font-size="14.00">decimateFFT</text>
<text text-anchor="start" x="297.6" y="-66.7" font-family="Times,serif" font-size="14.00">(FilterAndDecimate)</text>
</g>
<!-- decimateFFT&#45;&gt;arm_mult_q151 -->
<g id="edge3" class="edge">
<title>decimateFFT:i&#45;&gt;arm_mult_q151:ia</title>
<path fill="none" stroke="black" d="M416.36,-80C445.22,-80 480.38,-80 512.62,-80"/>
<polygon fill="black" stroke="black" points="512.6,-81.75 517.6,-80 512.6,-78.25 512.6,-81.75"/>
<text text-anchor="start" x="446.35" y="-82.85" font-family="Times,serif" font-size="12.00">q15(256)</text>
<text text-anchor="start" x="494.6" y="-62.6" font-family="Times,serif" font-size="12.00" fill="blue">256</text>
<text text-anchor="start" x="422.36" y="-62.6" font-family="Times,serif" font-size="12.00" fill="blue">8</text>
</g>
<!-- dup0&#45;&gt;decimateAmp -->
<g id="edge11" class="edge">
<title>dup0&#45;&gt;decimateAmp:i</title>
<path fill="none" stroke="black" d="M205.32,-114.28C208.13,-115.07 216.28,-117.31 223.1,-119 243.83,-124.14 266.48,-129.45 287.02,-134.15"/>
<polygon fill="black" stroke="black" points="286.48,-136.05 291.75,-135.46 287.26,-132.64 286.48,-136.05"/>
<text text-anchor="start" x="223.1" y="-132.85" font-family="Times,serif" font-size="12.00">q15(128)</text>
<text text-anchor="start" x="268.75" y="-118.06" font-family="Times,serif" font-size="12.00" fill="blue">128</text>
</g>
<!-- dup0&#45;&gt;decimateFFT -->
<g id="edge12" class="edge">
<title>dup0&#45;&gt;decimateFFT:i</title>
<path fill="none" stroke="black" d="M205.28,-113.4C208,-111.76 215.92,-107.15 223.1,-104.75 243.39,-97.97 266.12,-92.86 286.84,-89.09"/>
<polygon fill="black" stroke="black" points="287.02,-90.66 291.63,-88.06 286.41,-87.21 287.02,-90.66"/>
<text text-anchor="start" x="223.1" y="-107.85" font-family="Times,serif" font-size="12.00">q15(128)</text>
<text text-anchor="start" x="268.63" y="-70.66" font-family="Times,serif" font-size="12.00" fill="blue">128</text>
</g>
<!-- fb -->
<g id="node8" class="node">
<title>fb</title>
<polygon fill="none" stroke="none" points="310.22,-196.5 310.22,-239.5 398.97,-239.5 398.97,-196.5 310.22,-196.5"/>
<polygon fill="none" stroke="black" points="310.22,-196.5 310.22,-239.5 398.97,-239.5 398.97,-196.5 310.22,-196.5"/>
<text text-anchor="start" x="348.97" y="-221.2" font-family="Times,serif" font-size="14.00">fb</text>
<text text-anchor="start" x="315.22" y="-204.7" font-family="Times,serif" font-size="14.00">(ImageBuffer)</text>
</g>
<!-- fb&#45;&gt;ampW -->
<g id="edge2" class="edge">
<title>fb:i&#45;&gt;ampW:fb</title>
<path fill="none" stroke="black" d="M398.7,-199.7C430.43,-187.8 475.13,-174.28 516.75,-173.08"/>
<polygon fill="black" stroke="black" points="516.63,-174.82 521.6,-173 516.58,-171.32 516.63,-174.82"/>
<text text-anchor="start" x="442.6" y="-188.85" font-family="Times,serif" font-size="12.00">image_t(1)</text>
<text text-anchor="start" x="510.6" y="-181.85" font-family="Times,serif" font-size="12.00" fill="blue">1</text>
<text text-anchor="start" x="404.7" y="-182.3" font-family="Times,serif" font-size="12.00" fill="blue">1</text>
</g>
<!-- fft -->
<g id="node9" class="node">
<title>fft</title>
<polygon fill="none" stroke="none" points="920.85,-86.5 920.85,-129.5 972.1,-129.5 972.1,-86.5 920.85,-86.5"/>
<polygon fill="none" stroke="black" points="920.85,-86.5 920.85,-129.5 972.1,-129.5 972.1,-86.5 920.85,-86.5"/>
<text text-anchor="start" x="940.1" y="-111.2" font-family="Times,serif" font-size="14.00">fft</text>
<text text-anchor="start" x="925.85" y="-94.7" font-family="Times,serif" font-size="14.00">(CFFT)</text>
</g>
<!-- fftMag -->
<g id="node10" class="node">
<title>fftMag</title>
<polygon fill="none" stroke="none" points="1067.6,-93.5 1067.6,-136.5 1168.35,-136.5 1168.35,-93.5 1067.6,-93.5"/>
<polygon fill="none" stroke="black" points="1067.6,-93.5 1067.6,-136.5 1168.35,-136.5 1168.35,-93.5 1067.6,-93.5"/>
<text text-anchor="start" x="1098.85" y="-118.2" font-family="Times,serif" font-size="14.00">fftMag</text>
<text text-anchor="start" x="1072.6" y="-101.7" font-family="Times,serif" font-size="14.00">(FFTAmplitude)</text>
</g>
<!-- fft&#45;&gt;fftMag -->
<g id="edge6" class="edge">
<title>fft:i&#45;&gt;fftMag:i</title>
<path fill="none" stroke="black" d="M971.76,-109C995.29,-109.97 1031.78,-111.48 1062.3,-112.74"/>
<polygon fill="black" stroke="black" points="1061.86,-114.52 1066.93,-112.97 1062,-111.02 1061.86,-114.52"/>
<text text-anchor="start" x="998.1" y="-114.85" font-family="Times,serif" font-size="12.00">q15(512)</text>
<text text-anchor="start" x="1043.93" y="-95.57" font-family="Times,serif" font-size="12.00" fill="blue">512</text>
<text text-anchor="start" x="977.76" y="-91.6" font-family="Times,serif" font-size="12.00" fill="blue">512</text>
</g>
<!-- fftMag&#45;&gt;FFTW -->
<g id="edge7" class="edge">
<title>fftMag:i&#45;&gt;FFTW:i</title>
<path fill="none" stroke="black" d="M1168.27,-126.84C1194.18,-132.12 1226.73,-137.31 1256.86,-137.94"/>
<polygon fill="black" stroke="black" points="1256.83,-139.7 1261.85,-138 1256.87,-136.2 1256.83,-139.7"/>
<text text-anchor="start" x="1194.35" y="-139.85" font-family="Times,serif" font-size="12.00">q15(256)</text>
<text text-anchor="start" x="1238.85" y="-120.6" font-family="Times,serif" font-size="12.00" fill="blue">256</text>
<text text-anchor="start" x="1174.27" y="-109.44" font-family="Times,serif" font-size="12.00" fill="blue">256</text>
</g>
<!-- toCmplx&#45;&gt;fft -->
<g id="edge5" class="edge">
<title>toCmplx:i&#45;&gt;fft:i</title>
<path fill="none" stroke="black" d="M825.33,-90.86C853.32,-94.86 889.75,-100.05 915.12,-103.67"/>
<polygon fill="black" stroke="black" points="914.81,-105.54 920,-104.51 915.3,-102.07 914.81,-105.54"/>
<text text-anchor="start" x="851.35" y="-103.85" font-family="Times,serif" font-size="12.00">q15(512)</text>
<text text-anchor="start" x="897" y="-87.11" font-family="Times,serif" font-size="12.00" fill="blue">512</text>
<text text-anchor="start" x="831.33" y="-73.46" font-family="Times,serif" font-size="12.00" fill="blue">512</text>
</g>
<!-- hanningQ15 -->
<g id="node13" class="node">
<title>hanningQ15</title>
<polygon fill="none" stroke="none" points="316.22,-4.75 316.22,-31.25 392.97,-31.25 392.97,-4.75 316.22,-4.75"/>
<polygon fill="none" stroke="black" points="316.22,-4.75 316.22,-31.25 392.97,-31.25 392.97,-4.75 316.22,-4.75"/>
<text text-anchor="start" x="321.22" y="-12.95" font-family="Times,serif" font-size="14.00">hanningQ15</text>
</g>
<!-- hanningQ15&#45;&gt;arm_mult_q151 -->
<g id="edge13" class="edge">
<title>hanningQ15:i&#45;&gt;arm_mult_q151:ib</title>
<path fill="none" stroke="black" d="M390.98,-31.18C422.23,-41.69 469.44,-54.82 512.79,-55.92"/>
<polygon fill="black" stroke="black" points="512.58,-57.68 517.6,-56 512.62,-54.19 512.58,-57.68"/>
</g>
</g>
</svg>
