<?xml version="1.0" encoding="UTF-8" standalone="no"?>
<!DOCTYPE svg PUBLIC "-//W3C//DTD SVG 1.1//EN"
 "http://www.w3.org/Graphics/SVG/1.1/DTD/svg11.dtd">
<!-- Generated by graphviz version 8.0.5 (20230430.1635)
 -->
<!-- Title: structs Pages: 1 -->
<svg width="1859pt" height="292pt"
 viewBox="0.00 0.00 1858.85 292.00" xmlns="http://www.w3.org/2000/svg" xmlns:xlink="http://www.w3.org/1999/xlink">
<g id="graph0" class="graph" transform="scale(1 1) rotate(0) translate(4 288)">
<title>structs</title>
<polygon fill="white" stroke="none" points="-4,4 -4,-288 1854.85,-288 1854.85,4 -4,4"/>
<!-- Compositor -->
<g id="node1" class="node">
<title>Compositor</title>
<polygon fill="#ff83fa" stroke="none" points="1739.85,-152.5 1739.85,-224.5 1842.85,-224.5 1842.85,-152.5 1739.85,-152.5"/>
<polygon fill="none" stroke="black" points="1739.85,-200.5 1739.85,-224.5 1758.85,-224.5 1758.85,-200.5 1739.85,-200.5"/>
<text text-anchor="start" x="1744.85" y="-208.1" font-family="Times,serif" font-size="12.00">A</text>
<polygon fill="none" stroke="black" points="1758.85,-152.5 1758.85,-224.5 1832.85,-224.5 1832.85,-152.5 1758.85,-152.5"/>
<text text-anchor="start" x="1763.6" y="-191.7" font-family="Times,serif" font-size="14.00">Compositor</text>
<text text-anchor="start" x="1770.35" y="-175.2" font-family="Times,serif" font-size="14.00">(Arm2D)</text>
<polygon fill="none" stroke="black" points="1832.85,-200.5 1832.85,-224.5 1842.85,-224.5 1842.85,-200.5 1832.85,-200.5"/>
<polygon fill="none" stroke="black" points="1739.85,-176.5 1739.85,-200.5 1758.85,-200.5 1758.85,-176.5 1739.85,-176.5"/>
<text text-anchor="start" x="1745.22" y="-184.1" font-family="Times,serif" font-size="12.00">B</text>
<polygon fill="none" stroke="black" points="1832.85,-176.5 1832.85,-200.5 1842.85,-200.5 1842.85,-176.5 1832.85,-176.5"/>
<polygon fill="none" stroke="black" points="1739.85,-152.5 1739.85,-176.5 1758.85,-176.5 1758.85,-152.5 1739.85,-152.5"/>
<text text-anchor="start" x="1745.22" y="-160.1" font-family="Times,serif" font-size="12.00">C</text>
<polygon fill="none" stroke="black" points="1832.85,-152.5 1832.85,-176.5 1842.85,-176.5 1842.85,-152.5 1832.85,-152.5"/>
</g>
<!-- amp -->
<g id="node2" class="node">
<title>amp</title>
<polygon fill="none" stroke="none" points="569.1,-181.5 569.1,-229.5 715.1,-229.5 715.1,-181.5 569.1,-181.5"/>
<polygon fill="none" stroke="black" points="569.1,-205.5 569.1,-229.5 582.1,-229.5 582.1,-205.5 569.1,-205.5"/>
<text text-anchor="start" x="574.1" y="-213.1" font-family="Times,serif" font-size="12.00">i</text>
<polygon fill="none" stroke="black" points="582.1,-181.5 582.1,-229.5 699.1,-229.5 699.1,-181.5 582.1,-181.5"/>
<text text-anchor="start" x="628.6" y="-208.7" font-family="Times,serif" font-size="14.00">amp</text>
<text text-anchor="start" x="586.97" y="-192.2" font-family="Times,serif" font-size="14.00">(AmplitudeWidget)</text>
<polygon fill="none" stroke="black" points="699.1,-205.5 699.1,-229.5 715.1,-229.5 715.1,-205.5 699.1,-205.5"/>
<text text-anchor="start" x="704.1" y="-213.1" font-family="Times,serif" font-size="12.00">o</text>
<polygon fill="none" stroke="black" points="569.1,-181.5 569.1,-205.5 582.1,-205.5 582.1,-181.5 569.1,-181.5"/>
<text text-anchor="start" x="574.1" y="-189.1" font-family="Times,serif" font-size="12.00">l</text>
<polygon fill="none" stroke="black" points="699.1,-181.5 699.1,-205.5 715.1,-205.5 715.1,-181.5 699.1,-181.5"/>
</g>
<!-- amp&#45;&gt;Compositor -->
<g id="edge10" class="edge">
<title>amp:o&#45;&gt;Compositor:A</title>
<path fill="none" stroke="black" d="M716.1,-217.5C776.38,-217.5 791.45,-217.5 851.72,-217.5 851.72,-217.5 851.72,-217.5 1518.35,-217.5 1614.15,-217.5 1639.52,-212.7 1732.42,-212.51"/>
<polygon fill="black" stroke="black" points="1732.35,-214.26 1737.35,-212.5 1732.35,-210.76 1732.35,-214.26"/>
<text text-anchor="start" x="1067.6" y="-220.35" font-family="Times,serif" font-size="12.00">stream_2d_layer_t(1)</text>
<text text-anchor="start" x="1726.35" y="-221.35" font-family="Times,serif" font-size="12.00" fill="blue">1</text>
<text text-anchor="start" x="722.1" y="-226.35" font-family="Times,serif" font-size="12.00" fill="blue">1</text>
</g>
<!-- ampLayer -->
<g id="node3" class="node">
<title>ampLayer</title>
<polygon fill="#ff83fa" stroke="none" points="321.85,-168 321.85,-211 387.35,-211 387.35,-168 321.85,-168"/>
<polygon fill="none" stroke="black" points="321.85,-168 321.85,-211 387.35,-211 387.35,-168 321.85,-168"/>
<text text-anchor="start" x="326.85" y="-192.7" font-family="Times,serif" font-size="14.00">ampLayer</text>
<text text-anchor="start" x="334.35" y="-176.2" font-family="Times,serif" font-size="14.00">(Layer)</text>
</g>
<!-- ampLayer&#45;&gt;amp -->
<g id="edge7" class="edge">
<title>ampLayer:i&#45;&gt;amp:l</title>
<path fill="none" stroke="black" d="M387.28,-190.47C427.58,-191.62 499.52,-193.39 562.43,-193.5"/>
<polygon fill="black" stroke="black" points="562.1,-195.25 567.1,-193.5 562.1,-191.75 562.1,-195.25"/>
<text text-anchor="start" x="442.6" y="-195.35" font-family="Times,serif" font-size="12.00">stream_2d_layer_t(1)</text>
<text text-anchor="start" x="556.1" y="-176.1" font-family="Times,serif" font-size="12.00" fill="blue">1</text>
<text text-anchor="start" x="393.28" y="-199.32" font-family="Times,serif" font-size="12.00" fill="blue">1</text>
</g>
<!-- animate -->
<g id="node4" class="node">
<title>animate</title>
<polygon fill="none" stroke="none" points="1484.22,-138 1484.22,-181 1550.47,-181 1550.47,-138 1484.22,-138"/>
<polygon fill="none" stroke="black" points="1484.22,-138 1484.22,-181 1550.47,-181 1550.47,-138 1484.22,-138"/>
<text text-anchor="start" x="1495.6" y="-162.7" font-family="Times,serif" font-size="14.00">animate</text>
<text text-anchor="start" x="1489.22" y="-146.2" font-family="Times,serif" font-size="14.00">(Animate)</text>
</g>
<!-- animate&#45;&gt;Compositor -->
<g id="edge12" class="edge">
<title>animate:i&#45;&gt;Compositor:C</title>
<path fill="none" stroke="black" d="M1550.42,-156.44C1568.81,-154.84 1592.36,-153.05 1613.35,-152.25 1657.98,-150.55 1670.38,-141.99 1713.85,-152.25 1723.48,-154.52 1725.6,-161.19 1732.58,-163.61"/>
<polygon fill="black" stroke="black" points="1732.14,-165.47 1737.35,-164.5 1732.68,-162.01 1732.14,-165.47"/>
<text text-anchor="start" x="1613.35" y="-155.35" font-family="Times,serif" font-size="12.00">stream_2d_layer_t(1)</text>
<text text-anchor="start" x="1726.35" y="-147.1" font-family="Times,serif" font-size="12.00" fill="blue">1</text>
<text text-anchor="start" x="1556.42" y="-139.04" font-family="Times,serif" font-size="12.00" fill="blue">1</text>
</g>
<!-- arm_mult_q151 -->
<g id="node5" class="node">
<title>arm_mult_q151</title>
<polygon fill="#ffd39b" stroke="none" points="579.1,-58.5 579.1,-106.5 705.1,-106.5 705.1,-58.5 579.1,-58.5"/>
<polygon fill="none" stroke="black" points="579.1,-82.5 579.1,-106.5 598.1,-106.5 598.1,-82.5 579.1,-82.5"/>
<text text-anchor="start" x="584.47" y="-90.1" font-family="Times,serif" font-size="12.00">ia</text>
<polygon fill="none" stroke="black" points="598.1,-58.5 598.1,-106.5 689.1,-106.5 689.1,-58.5 598.1,-58.5"/>
<text text-anchor="start" x="603.1" y="-85.7" font-family="Times,serif" font-size="14.00">arm_mult_q15</text>
<text text-anchor="start" x="615.1" y="-69.2" font-family="Times,serif" font-size="14.00">(Function)</text>
<polygon fill="none" stroke="black" points="689.1,-82.5 689.1,-106.5 705.1,-106.5 705.1,-82.5 689.1,-82.5"/>
<text text-anchor="start" x="694.1" y="-90.1" font-family="Times,serif" font-size="12.00">o</text>
<polygon fill="none" stroke="black" points="579.1,-58.5 579.1,-82.5 598.1,-82.5 598.1,-58.5 579.1,-58.5"/>
<text text-anchor="start" x="584.1" y="-66.1" font-family="Times,serif" font-size="12.00">ib</text>
<polygon fill="none" stroke="black" points="689.1,-58.5 689.1,-82.5 705.1,-82.5 705.1,-58.5 689.1,-58.5"/>
</g>
<!-- toCmplx -->
<g id="node15" class="node">
<title>toCmplx</title>
<polygon fill="none" stroke="none" points="810.6,-73 810.6,-116 894.85,-116 894.85,-73 810.6,-73"/>
<polygon fill="none" stroke="black" points="810.6,-73 810.6,-116 894.85,-116 894.85,-73 810.6,-73"/>
<text text-anchor="start" x="828.72" y="-97.7" font-family="Times,serif" font-size="14.00">toCmplx</text>
<text text-anchor="start" x="815.6" y="-81.2" font-family="Times,serif" font-size="14.00">(ToComplex)</text>
</g>
<!-- arm_mult_q151&#45;&gt;toCmplx -->
<g id="edge3" class="edge">
<title>arm_mult_q151:o&#45;&gt;toCmplx:i</title>
<path fill="none" stroke="black" d="M706.1,-94.5C739.03,-94.5 776.14,-94.5 804.66,-94.5"/>
<polygon fill="black" stroke="black" points="804.61,-96.25 809.61,-94.5 804.61,-92.75 804.61,-96.25"/>
<text text-anchor="start" x="741.1" y="-97.35" font-family="Times,serif" font-size="12.00">q15(256)</text>
<text text-anchor="start" x="786.61" y="-77.1" font-family="Times,serif" font-size="12.00" fill="blue">256</text>
<text text-anchor="start" x="712.1" y="-103.35" font-family="Times,serif" font-size="12.00" fill="blue">256</text>
</g>
<!-- cmsis -->
<g id="node6" class="node">
<title>cmsis</title>
<polygon fill="#ff83fa" stroke="none" points="1209.85,-142 1209.85,-185 1279.1,-185 1279.1,-142 1209.85,-142"/>
<polygon fill="none" stroke="black" points="1209.85,-142 1209.85,-185 1279.1,-185 1279.1,-142 1209.85,-142"/>
<text text-anchor="start" x="1228.72" y="-166.7" font-family="Times,serif" font-size="14.00">cmsis</text>
<text text-anchor="start" x="1214.85" y="-150.2" font-family="Times,serif" font-size="14.00">(ROLayer)</text>
</g>
<!-- cmsis&#45;&gt;animate -->
<g id="edge9" class="edge">
<title>cmsis:i&#45;&gt;animate:i</title>
<path fill="none" stroke="black" d="M1278.96,-163.01C1329.66,-162.26 1425.61,-160.84 1478.68,-160.06"/>
<polygon fill="black" stroke="black" points="1478.65,-161.79 1483.62,-159.97 1478.59,-158.29 1478.65,-161.79"/>
<text text-anchor="start" x="1320.85" y="-165.35" font-family="Times,serif" font-size="12.00">stream_2d_layer_t(1)</text>
<text text-anchor="start" x="1472.62" y="-168.82" font-family="Times,serif" font-size="12.00" fill="blue">1</text>
<text text-anchor="start" x="1284.96" y="-145.61" font-family="Times,serif" font-size="12.00" fill="blue">1</text>
</g>
<!-- core0 -->
<g id="node7" class="node">
<title>core0</title>
<polygon fill="#ff3030" stroke="none" points="8,-167 8,-210 114,-210 114,-167 8,-167"/>
<polygon fill="none" stroke="black" points="8,-167 8,-210 114,-210 114,-167 8,-167"/>
<text text-anchor="start" x="46" y="-191.7" font-family="Times,serif" font-size="14.00">core0</text>
<text text-anchor="start" x="13" y="-175.2" font-family="Times,serif" font-size="14.00">(FromOtherCore)</text>
</g>
<!-- dup0 -->
<g id="node10" class="node">
<title>dup0</title>
<ellipse fill="black" stroke="black" cx="203.3" cy="-188.5" rx="1.8" ry="1.8"/>
</g>
<!-- core0&#45;&gt;dup0 -->
<g id="edge13" class="edge">
<title>core0:i&#45;&gt;dup0</title>
<path fill="none" stroke="black" d="M113.84,-188.5C144.69,-188.5 180.61,-188.5 195.4,-188.5"/>
<polygon fill="black" stroke="black" points="195.07,-190.25 200.07,-188.5 195.07,-186.75 195.07,-190.25"/>
<text text-anchor="start" x="140" y="-191.35" font-family="Times,serif" font-size="12.00">q15(128)</text>
<text text-anchor="start" x="119.84" y="-171.1" font-family="Times,serif" font-size="12.00" fill="blue">128</text>
</g>
<!-- decimateAmp -->
<g id="node8" class="node">
<title>decimateAmp</title>
<polygon fill="none" stroke="none" points="292.6,-237 292.6,-280 416.6,-280 416.6,-237 292.6,-237"/>
<polygon fill="none" stroke="black" points="292.6,-237 292.6,-280 416.6,-280 416.6,-237 292.6,-237"/>
<text text-anchor="start" x="315.97" y="-261.7" font-family="Times,serif" font-size="14.00">decimateAmp</text>
<text text-anchor="start" x="297.6" y="-245.2" font-family="Times,serif" font-size="14.00">(FilterAndDecimate)</text>
</g>
<!-- decimateAmp&#45;&gt;amp -->
<g id="edge1" class="edge">
<title>decimateAmp:i&#45;&gt;amp:i</title>
<path fill="none" stroke="black" d="M416.38,-240.4C456.99,-229.82 511.99,-218.38 562.3,-217.55"/>
<polygon fill="black" stroke="black" points="562.11,-219.29 567.1,-217.5 562.09,-215.79 562.11,-219.29"/>
<text text-anchor="start" x="471.1" y="-235.35" font-family="Times,serif" font-size="12.00">q15(256)</text>
<text text-anchor="start" x="544.1" y="-226.35" font-family="Times,serif" font-size="12.00" fill="blue">256</text>
<text text-anchor="start" x="422.38" y="-223" font-family="Times,serif" font-size="12.00" fill="blue">8</text>
</g>
<!-- decimateFFT -->
<g id="node9" class="node">
<title>decimateFFT</title>
<polygon fill="none" stroke="none" points="292.6,-99 292.6,-142 416.6,-142 416.6,-99 292.6,-99"/>
<polygon fill="none" stroke="black" points="292.6,-99 292.6,-142 416.6,-142 416.6,-99 292.6,-99"/>
<text text-anchor="start" x="318.22" y="-123.7" font-family="Times,serif" font-size="14.00">decimateFFT</text>
<text text-anchor="start" x="297.6" y="-107.2" font-family="Times,serif" font-size="14.00">(FilterAndDecimate)</text>
</g>
<!-- decimateFFT&#45;&gt;arm_mult_q151 -->
<g id="edge2" class="edge">
<title>decimateFFT:i&#45;&gt;arm_mult_q151:ia</title>
<path fill="none" stroke="black" d="M416.29,-109.55C459.33,-102.69 518.72,-95.06 572.27,-94.53"/>
<polygon fill="black" stroke="black" points="572.11,-96.27 577.1,-94.5 572.09,-92.78 572.11,-96.27"/>
<text text-anchor="start" x="471.1" y="-108.35" font-family="Times,serif" font-size="12.00">q15(256)</text>
<text text-anchor="start" x="554.1" y="-103.35" font-family="Times,serif" font-size="12.00" fill="blue">256</text>
<text text-anchor="start" x="422.29" y="-92.15" font-family="Times,serif" font-size="12.00" fill="blue">8</text>
</g>
<!-- dup0&#45;&gt;decimateAmp -->
<g id="edge14" class="edge">
<title>dup0&#45;&gt;decimateAmp:i</title>
<path fill="none" stroke="black" d="M205.25,-188.95C212.74,-192.46 262.84,-215.95 302.78,-234.67"/>
<polygon fill="black" stroke="black" points="301.82,-236.62 307.09,-237.16 303.3,-233.45 301.82,-236.62"/>
<text text-anchor="start" x="223.1" y="-219.35" font-family="Times,serif" font-size="12.00">q15(128)</text>
<text text-anchor="start" x="284.09" y="-219.76" font-family="Times,serif" font-size="12.00" fill="blue">128</text>
</g>
<!-- dup0&#45;&gt;decimateFFT -->
<g id="edge15" class="edge">
<title>dup0&#45;&gt;decimateFFT:i</title>
<path fill="none" stroke="black" d="M205.25,-188.07C212.65,-184.7 261.57,-162.41 301.25,-144.34"/>
<polygon fill="black" stroke="black" points="301.71,-145.6 305.53,-141.94 300.26,-142.42 301.71,-145.6"/>
<text text-anchor="start" x="223.1" y="-181.35" font-family="Times,serif" font-size="12.00">q15(128)</text>
<text text-anchor="start" x="282.53" y="-150.79" font-family="Times,serif" font-size="12.00" fill="blue">128</text>
</g>
<!-- fft -->
<g id="node11" class="node">
<title>fft</title>
<polygon fill="none" stroke="none" points="990.35,-73 990.35,-116 1041.6,-116 1041.6,-73 990.35,-73"/>
<polygon fill="none" stroke="black" points="990.35,-73 990.35,-116 1041.6,-116 1041.6,-73 990.35,-73"/>
<text text-anchor="start" x="1009.6" y="-97.7" font-family="Times,serif" font-size="14.00">fft</text>
<text text-anchor="start" x="995.35" y="-81.2" font-family="Times,serif" font-size="14.00">(CFFT)</text>
</g>
<!-- fftMag -->
<g id="node13" class="node">
<title>fftMag</title>
<polygon fill="none" stroke="none" points="1194.1,-73 1194.1,-116 1294.85,-116 1294.85,-73 1194.1,-73"/>
<polygon fill="none" stroke="black" points="1194.1,-73 1194.1,-116 1294.85,-116 1294.85,-73 1194.1,-73"/>
<text text-anchor="start" x="1225.35" y="-97.7" font-family="Times,serif" font-size="14.00">fftMag</text>
<text text-anchor="start" x="1199.1" y="-81.2" font-family="Times,serif" font-size="14.00">(FFTAmplitude)</text>
</g>
<!-- fft&#45;&gt;fftMag -->
<g id="edge5" class="edge">
<title>fft:i&#45;&gt;fftMag:i</title>
<path fill="none" stroke="black" d="M1041.21,-94.5C1076.13,-94.5 1141.53,-94.5 1188.52,-94.5"/>
<polygon fill="black" stroke="black" points="1188.44,-96.25 1193.44,-94.5 1188.44,-92.75 1188.44,-96.25"/>
<text text-anchor="start" x="1096.1" y="-97.35" font-family="Times,serif" font-size="12.00">q15(512)</text>
<text text-anchor="start" x="1170.44" y="-77.1" font-family="Times,serif" font-size="12.00" fill="blue">512</text>
<text text-anchor="start" x="1047.21" y="-77.1" font-family="Times,serif" font-size="12.00" fill="blue">512</text>
</g>
<!-- fftLayer -->
<g id="node12" class="node">
<title>fftLayer</title>
<polygon fill="#ff83fa" stroke="none" points="1217.35,-4 1217.35,-47 1271.6,-47 1271.6,-4 1217.35,-4"/>
<polygon fill="none" stroke="black" points="1217.35,-4 1217.35,-47 1271.6,-47 1271.6,-4 1217.35,-4"/>
<text text-anchor="start" x="1222.35" y="-28.7" font-family="Times,serif" font-size="14.00">fftLayer</text>
<text text-anchor="start" x="1224.22" y="-12.2" font-family="Times,serif" font-size="14.00">(Layer)</text>
</g>
<!-- spectrum -->
<g id="node14" class="node">
<title>spectrum</title>
<polygon fill="none" stroke="none" points="1447.35,-58.5 1447.35,-106.5 1587.35,-106.5 1587.35,-58.5 1447.35,-58.5"/>
<polygon fill="none" stroke="black" points="1447.35,-82.5 1447.35,-106.5 1460.35,-106.5 1460.35,-82.5 1447.35,-82.5"/>
<text text-anchor="start" x="1452.35" y="-90.1" font-family="Times,serif" font-size="12.00">i</text>
<polygon fill="none" stroke="black" points="1460.35,-58.5 1460.35,-106.5 1571.35,-106.5 1571.35,-58.5 1460.35,-58.5"/>
<text text-anchor="start" x="1490.72" y="-85.7" font-family="Times,serif" font-size="14.00">spectrum</text>
<text text-anchor="start" x="1465.22" y="-69.2" font-family="Times,serif" font-size="14.00">(SpectrumWidget)</text>
<polygon fill="none" stroke="black" points="1571.35,-82.5 1571.35,-106.5 1587.35,-106.5 1587.35,-82.5 1571.35,-82.5"/>
<text text-anchor="start" x="1576.35" y="-90.1" font-family="Times,serif" font-size="12.00">o</text>
<polygon fill="none" stroke="black" points="1447.35,-58.5 1447.35,-82.5 1460.35,-82.5 1460.35,-58.5 1447.35,-58.5"/>
<text text-anchor="start" x="1452.35" y="-66.1" font-family="Times,serif" font-size="12.00">l</text>
<polygon fill="none" stroke="black" points="1571.35,-58.5 1571.35,-82.5 1587.35,-82.5 1587.35,-58.5 1571.35,-58.5"/>
</g>
<!-- fftLayer&#45;&gt;spectrum -->
<g id="edge8" class="edge">
<title>fftLayer:i&#45;&gt;spectrum:l</title>
<path fill="none" stroke="black" d="M1271.38,-35.15C1308.14,-47.99 1377.96,-69.21 1440.69,-70.44"/>
<polygon fill="black" stroke="black" points="1440.33,-72.2 1445.35,-70.5 1440.37,-68.7 1440.33,-72.2"/>
<text text-anchor="start" x="1320.85" y="-72.35" font-family="Times,serif" font-size="12.00">stream_2d_layer_t(1)</text>
<text text-anchor="start" x="1434.35" y="-53.1" font-family="Times,serif" font-size="12.00" fill="blue">1</text>
<text text-anchor="start" x="1277.38" y="-44" font-family="Times,serif" font-size="12.00" fill="blue">1</text>
</g>
<!-- fftMag&#45;&gt;spectrum -->
<g id="edge6" class="edge">
<title>fftMag:i&#45;&gt;spectrum:i</title>
<path fill="none" stroke="black" d="M1294.59,-94.5C1333.75,-94.5 1390.19,-94.5 1440.55,-94.5"/>
<polygon fill="black" stroke="black" points="1440.35,-96.25 1445.35,-94.5 1440.35,-92.75 1440.35,-96.25"/>
<text text-anchor="start" x="1349.35" y="-97.35" font-family="Times,serif" font-size="12.00">q15(128)</text>
<text text-anchor="start" x="1422.35" y="-103.35" font-family="Times,serif" font-size="12.00" fill="blue">128</text>
<text text-anchor="start" x="1300.59" y="-103.35" font-family="Times,serif" font-size="12.00" fill="blue">128</text>
</g>
<!-- spectrum&#45;&gt;Compositor -->
<g id="edge11" class="edge">
<title>spectrum:o&#45;&gt;Compositor:B</title>
<path fill="none" stroke="black" d="M1579.35,-107.5C1579.35,-117.88 1589.66,-115.82 1595.35,-124.5 1606.48,-141.49 1597.43,-153.89 1613.35,-166.5 1634.07,-182.92 1701.01,-187.89 1732.54,-188.45"/>
<polygon fill="black" stroke="black" points="1732.33,-190.2 1737.35,-188.5 1732.37,-186.7 1732.33,-190.2"/>
<text text-anchor="start" x="1613.35" y="-190.35" font-family="Times,serif" font-size="12.00">stream_2d_layer_t(1)</text>
<text text-anchor="start" x="1726.35" y="-171.1" font-family="Times,serif" font-size="12.00" fill="blue">1</text>
<text text-anchor="start" x="1585.35" y="-116.35" font-family="Times,serif" font-size="12.00" fill="blue">1</text>
</g>
<!-- toCmplx&#45;&gt;fft -->
<g id="edge4" class="edge">
<title>toCmplx:i&#45;&gt;fft:i</title>
<path fill="none" stroke="black" d="M894.83,-94.5C922.82,-94.5 959.25,-94.5 984.62,-94.5"/>
<polygon fill="black" stroke="black" points="984.5,-96.25 989.5,-94.5 984.5,-92.75 984.5,-96.25"/>
<text text-anchor="start" x="920.85" y="-97.35" font-family="Times,serif" font-size="12.00">q15(512)</text>
<text text-anchor="start" x="966.5" y="-77.1" font-family="Times,serif" font-size="12.00" fill="blue">512</text>
<text text-anchor="start" x="900.83" y="-77.1" font-family="Times,serif" font-size="12.00" fill="blue">512</text>
</g>
<!-- hanningQ15 -->
<g id="node16" class="node">
<title>hanningQ15</title>
<polygon fill="none" stroke="none" points="316.22,-45.25 316.22,-71.75 392.97,-71.75 392.97,-45.25 316.22,-45.25"/>
<polygon fill="none" stroke="black" points="316.22,-45.25 316.22,-71.75 392.97,-71.75 392.97,-45.25 316.22,-45.25"/>
<text text-anchor="start" x="321.22" y="-53.45" font-family="Times,serif" font-size="14.00">hanningQ15</text>
</g>
<!-- hanningQ15&#45;&gt;arm_mult_q151 -->
<g id="edge16" class="edge">
<title>hanningQ15:i&#45;&gt;arm_mult_q151:ib</title>
<path fill="none" stroke="black" d="M392.97,-61.75C435.85,-65.2 508.5,-70.2 572.34,-70.49"/>
<polygon fill="black" stroke="black" points="572.1,-72.24 577.1,-70.5 572.1,-68.74 572.1,-72.24"/>
</g>
</g>
</svg>
